<?xml version="1.0" standalone="no"?>
<!DOCTYPE svg PUBLIC "-//W3C//DTD SVG 20010904//EN"
 "http://www.w3.org/TR/2001/REC-SVG-20010904/DTD/svg10.dtd">
<svg version="1.0" xmlns="http://www.w3.org/2000/svg"
 width="600.000000pt" height="150.000000pt" viewBox="0 0 600.000000 150.000000"
 preserveAspectRatio="xMidYMid meet">
<metadata>
Created by potrace 1.10, written by Peter Selinger 2001-2011
</metadata>
<g transform="translate(0.000000,150.000000) scale(0.050000,-0.050000)"
fill="#000000" stroke="none">
<path d="M1193 2868 c-779 -188 -1050 -1156 -481 -1718 589 -584 1668 -283
1668 464 l0 226 63 0 63 0 -12 142 c-52 618 -670 1039 -1301 886z m314 -253
c37 -137 -7 -234 -78 -174 -29 24 -28 70 4 184 14 50 60 43 74 -10z m-379
-142 c-1 -18 -3 -64 -5 -103 -3 -60 -10 -70 -53 -70 -59 0 -65 44 -20 152 29
72 82 85 78 21z m763 -22 c36 -87 37 -144 2 -157 -49 -19 -81 22 -85 109 -7
138 35 162 83 48z m-301 -113 c62 -61 57 -257 -8 -326 -109 -116 -261 -37
-276 142 -17 205 152 314 284 184z m-382 -124 c143 -143 31 -415 -138 -337
-120 54 -165 270 -73 345 65 52 154 48 211 -8z m737 -17 c55 -65 46 -185 -21
-259 -110 -124 -244 -60 -244 116 0 173 164 262 265 143z m-1135 -119 c0 -76
-6 -89 -45 -94 -51 -8 -64 82 -24 159 35 64 69 32 69 -65z m1390 51 c36 -94
26 -153 -25 -145 -35 5 -46 21 -51 73 -12 122 39 170 76 72z m-1238 -231 c68
-73 80 -200 25 -261 -90 -100 -267 10 -267 165 0 162 132 214 242 96z m1218
22 c63 -63 54 -189 -18 -262 -135 -134 -309 -9 -235 168 53 126 175 172 253
94z m-511 -79 c27 -26 60 -77 72 -114 13 -40 45 -80 78 -97 183 -94 229 -213
136 -350 -98 -144 -157 -162 -445 -140 -55 5 -154 1 -220 -8 -336 -44 -481
338 -185 490 49 25 79 57 87 93 42 175 341 254 477 126z"/>
<path d="M1424 2256 c-34 -34 -30 -146 6 -176 68 -57 137 55 93 151 -24 53
-61 63 -99 25z"/>
<path d="M1073 2147 c-25 -25 -13 -142 17 -167 34 -28 90 4 90 52 0 79 -68
153 -107 115z"/>
<path d="M1793 2127 c-28 -28 -14 -147 17 -147 38 0 80 86 63 129 -12 32 -56
42 -80 18z"/>
<path d="M820 1819 c0 -58 36 -119 71 -119 34 0 38 65 8 121 -27 52 -79 50
-79 -2z"/>
<path d="M2044 1836 c-28 -28 -33 -136 -5 -136 35 0 83 65 77 106 -7 50 -39
63 -72 30z"/>
<path d="M1340 1760 c-22 -22 -40 -52 -40 -67 0 -47 -80 -132 -163 -174 -188
-96 -37 -335 175 -276 46 13 134 16 218 8 226 -22 234 -21 304 57 84 91 85
144 3 188 -109 60 -174 123 -197 195 -38 114 -214 155 -300 69z"/>
<path d="M7745 1647 l5 -554 80 0 80 0 5 554 6 553 -91 0 -91 0 6 -553z"/>
<path d="M4220 2091 c0 -16 -85 -243 -190 -504 -223 -556 -212 -503 -100 -499
87 2 92 5 111 77 l21 75 187 0 187 0 12 -68 c12 -64 131 -112 195 -79 16 9
-388 1027 -408 1027 -8 0 -15 -13 -15 -29z m94 -560 c60 -157 63 -151 -64
-151 -127 0 -129 5 -76 174 44 138 79 132 140 -23z"/>
<path d="M5500 2030 l0 -90 100 0 100 0 0 90 0 90 -100 0 -100 0 0 -90z"/>
<path d="M5010 1826 c-22 -6 -50 -19 -63 -29 -15 -12 -28 -11 -36 2 -8 12 -51
21 -97 21 l-84 0 4 -363 5 -363 85 0 86 0 10 272 c11 300 30 351 125 327 76
-19 95 -92 95 -359 l0 -245 81 0 82 0 -7 317 -6 317 -65 59 c-64 56 -118 67
-215 44z"/>
<path d="M6130 1809 c-38 -20 -62 -24 -66 -10 -4 11 -47 21 -96 21 l-89 0 6
-363 5 -363 87 0 87 0 3 261 c3 285 25 345 126 345 89 0 110 -71 105 -354 l-5
-256 79 2 78 2 6 257 c6 290 22 329 137 329 83 0 86 -11 92 -337 l5 -247 85
-5 85 -4 0 284 c0 156 -10 311 -21 344 -44 124 -247 159 -353 61 l-44 -41 -63
52 c-71 61 -159 68 -249 22z"/>
<path d="M7160 1808 c-60 -17 -113 -35 -118 -39 -6 -6 34 -124 50 -146 2 -3
27 9 55 27 79 52 218 34 234 -30 17 -66 -12 -100 -84 -100 -151 0 -277 -100
-277 -221 0 -198 145 -281 311 -178 56 34 69 36 83 12 9 -16 43 -32 76 -36
l60 -7 0 315 c0 418 -71 492 -390 403z m240 -435 c0 -126 -184 -215 -212 -103
-18 73 2 106 76 127 111 32 136 28 136 -24z"/>
<path d="M8252 1819 c-218 -65 -208 -323 17 -417 201 -83 172 -225 -32 -152
-48 17 -95 33 -104 36 -41 10 -58 -107 -22 -147 60 -67 310 -56 388 16 133
123 85 272 -123 377 -107 54 -134 93 -96 138 32 38 94 38 167 0 32 -17 60 -30
63 -30 6 0 50 118 50 132 0 9 -204 68 -229 66 -11 -1 -47 -9 -79 -19z"/>
<path d="M5520 1815 c-1 -3 -1 -166 -2 -363 l-2 -358 87 0 87 0 5 363 6 363
-91 0 c-49 0 -90 -2 -90 -5z"/>
<path d="M3533 1778 c-32 -9 -74 -31 -94 -49 -39 -35 -79 -24 -79 22 0 20 -22
29 -70 29 l-70 0 0 -346 0 -347 85 4 85 5 10 233 c9 202 15 238 49 263 46 33
114 37 145 6 27 -27 38 -9 55 94 15 94 -12 114 -116 86z"/>
<path d="M2453 1767 c-28 -29 -14 -527 17 -587 56 -107 217 -138 316 -60 43
34 54 36 68 12 9 -15 46 -31 83 -35 l66 -7 0 340 0 340 -91 6 -92 6 0 -249 c0
-276 -14 -313 -119 -313 -76 0 -81 21 -81 312 l0 248 -77 0 c-42 0 -82 -6 -90
-13z"/>
</g>
</svg>
