<?xml version="1.0" standalone="no"?>
<!DOCTYPE svg PUBLIC "-//W3C//DTD SVG 20010904//EN"
 "http://www.w3.org/TR/2001/REC-SVG-20010904/DTD/svg10.dtd">
<svg version="1.0" xmlns="http://www.w3.org/2000/svg"
 width="300.000000pt" height="246.000000pt" viewBox="0 0 300.000000 246.000000"
 preserveAspectRatio="xMidYMid meet">
<metadata>
Created by potrace 1.10, written by Peter Selinger 2001-2011
</metadata>
<g transform="translate(0.000000,246.000000) scale(0.050000,-0.050000)"
fill="#000000" stroke="none">
<path d="M2988 4808 c-51 -54 -174 -180 -273 -280 l-180 -183 -147 -13 c-80
-8 -171 -27 -202 -43 -31 -16 -82 -29 -113 -29 -31 0 -81 -12 -110 -27 -29
-14 -106 -53 -170 -85 -316 -158 -711 -533 -805 -766 -87 -214 -316 -466 -493
-542 -25 -11 -58 -28 -75 -38 -64 -40 -202 -102 -226 -102 -134 0 -197 -214
-126 -419 153 -436 426 -611 1002 -644 272 -15 405 -38 580 -99 33 -12 90 -30
127 -41 465 -138 1002 -732 1196 -1322 l57 -175 1485 0 1485 0 -5 1944 -5
1944 -225 75 c-365 121 -1034 232 -1425 236 -82 1 -186 15 -230 30 -44 16
-151 30 -237 30 -106 1 -202 16 -295 46 l-138 45 0 95 c0 321 -280 545 -452
363z"/>
</g>
</svg>
