<?xml version="1.0" standalone="no"?>
<!DOCTYPE svg PUBLIC "-//W3C//DTD SVG 20010904//EN"
 "http://www.w3.org/TR/2001/REC-SVG-20010904/DTD/svg10.dtd">
<svg version="1.0" xmlns="http://www.w3.org/2000/svg"
 width="300.000000pt" height="246.000000pt" viewBox="0 0 300.000000 246.000000"
 preserveAspectRatio="xMidYMid meet">
<metadata>
Created by potrace 1.10, written by Peter Selinger 2001-2011
</metadata>
<g transform="translate(0.000000,246.000000) scale(0.100000,-0.100000)"
fill="#000000" stroke="none">
<path d="M1494 2404 c-25 -27 -86 -90 -136 -140 l-89 -92 -77 -7 c-42 -4 -86
-13 -97 -21 -11 -8 -36 -14 -55 -14 -20 0 -45 -7 -56 -15 -10 -8 -26 -15 -34
-15 -33 0 -192 -112 -335 -235 -54 -47 -116 -140 -130 -195 -16 -66 -158 -216
-237 -250 -13 -6 -30 -14 -38 -19 -31 -19 -101 -51 -113 -51 -46 -2 -94 -91
-81 -150 52 -235 235 -379 485 -381 343 -2 616 -140 821 -414 57 -75 148 -240
148 -267 0 -7 6 -25 14 -39 7 -14 16 -42 20 -62 4 -21 12 -37 18 -37 12 0 2
90 -13 104 -5 6 -9 17 -9 26 0 25 -107 230 -139 267 -6 7 -11 15 -11 18 0 21
-210 233 -253 254 -23 12 -64 35 -92 53 -58 36 -165 78 -215 85 -19 3 -48 12
-63 20 -19 10 -75 16 -170 19 -125 5 -153 9 -237 37 -85 29 -101 38 -153 90
-75 75 -117 164 -117 246 0 69 3 72 123 129 185 87 278 175 340 320 48 111 95
163 267 291 41 31 77 58 80 61 3 3 28 16 55 29 28 13 62 30 77 38 14 7 41 13
60 13 19 0 39 5 45 11 6 6 48 15 93 20 l82 8 71 68 c39 37 98 98 130 136 63
72 90 83 135 52 37 -27 76 -104 83 -167 8 -64 29 -98 63 -98 12 0 34 -7 50
-15 18 -10 56 -15 105 -15 43 0 100 -6 127 -14 27 -8 99 -17 159 -20 224 -13
519 -63 676 -117 132 -45 132 -45 127 -23 -2 9 -21 22 -43 30 -119 43 -234 74
-331 89 -60 9 -145 23 -189 31 -45 7 -139 16 -210 20 -72 3 -152 12 -179 20
-27 8 -85 14 -127 14 -46 0 -92 6 -111 14 -18 8 -45 17 -60 21 -26 5 -28 9
-28 55 0 93 -78 212 -148 226 -29 6 -37 2 -78 -42z"/>
</g>
</svg>
