<?xml version="1.0" standalone="no"?>
<!DOCTYPE svg PUBLIC "-//W3C//DTD SVG 20010904//EN"
 "http://www.w3.org/TR/2001/REC-SVG-20010904/DTD/svg10.dtd">
<svg version="1.0" xmlns="http://www.w3.org/2000/svg"
 width="300.000000pt" height="331.000000pt" viewBox="0 0 300.000000 331.000000"
 preserveAspectRatio="xMidYMid meet">
<metadata>
Created by potrace 1.10, written by Peter Selinger 2001-2011
</metadata>
<g transform="translate(0.000000,331.000000) scale(0.100000,-0.100000)"
fill="#000000" stroke="none">
<path d="M1482 3293 c-11 -4 -12 -45 -6 -207 8 -239 -2 -311 -44 -327 -14 -5
-38 -7 -53 -4 -15 3 -53 -2 -85 -11 -33 -10 -62 -17 -66 -16 -4 1 -29 -10 -56
-23 -28 -14 -55 -25 -61 -25 -13 0 -118 -66 -150 -94 -28 -25 -86 -113 -115
-176 -12 -25 -35 -65 -50 -90 -33 -51 -153 -170 -172 -170 -6 0 -14 -7 -18
-15 -3 -8 -12 -15 -19 -15 -8 0 -26 -9 -40 -20 -14 -11 -78 -47 -142 -80 -64
-33 -126 -66 -138 -75 -12 -8 -29 -15 -38 -15 -9 0 -19 -6 -22 -14 -3 -7 -18
-16 -34 -19 -15 -3 -38 -14 -50 -24 -12 -10 -34 -25 -50 -34 -15 -8 -37 -31
-47 -51 -19 -35 -19 -36 0 -70 10 -19 38 -71 62 -115 64 -119 175 -226 258
-248 71 -18 162 -16 260 6 172 38 187 40 289 47 183 13 260 -21 300 -131 17
-45 19 -71 15 -197 -12 -384 4 -643 55 -850 34 -137 65 -230 77 -230 13 0 9
23 -35 190 -36 140 -52 219 -48 234 1 5 -6 72 -15 150 -13 114 -15 190 -9 401
7 252 6 262 -15 315 -46 116 -119 155 -285 152 -89 -2 -233 -23 -257 -38 -19
-12 -138 -25 -226 -24 -113 1 -165 23 -242 101 -54 56 -165 242 -163 274 2 23
65 83 109 104 16 7 36 17 44 22 8 5 22 12 30 15 8 3 29 12 45 21 17 9 77 40
135 70 138 70 179 94 198 116 9 9 21 17 27 17 27 0 143 122 186 196 25 44 65
111 88 150 22 39 53 82 69 96 32 29 153 97 184 103 12 3 24 9 28 15 4 6 20 12
36 14 16 2 49 10 74 17 25 7 69 13 98 13 96 2 109 45 104 349 -1 103 -1 187 1
187 9 0 94 -45 140 -74 53 -34 126 -110 173 -181 31 -46 84 -168 89 -206 7
-44 23 -77 47 -93 13 -9 51 -34 84 -56 34 -22 77 -59 96 -83 37 -45 88 -134
88 -154 0 -6 9 -27 19 -45 11 -18 22 -53 26 -78 4 -25 13 -54 20 -65 7 -11 15
-36 19 -55 4 -19 13 -51 20 -70 8 -19 20 -55 27 -80 22 -76 77 -189 119 -243
62 -80 210 -227 286 -284 16 -12 40 -31 54 -43 27 -24 156 -109 177 -117 7 -3
13 1 13 10 0 8 -33 36 -72 62 -40 27 -96 68 -125 92 -28 24 -54 43 -57 43 -7
0 -113 98 -155 144 -120 131 -128 142 -166 226 -8 19 -20 43 -25 52 -6 10 -10
27 -10 37 0 11 -4 23 -10 26 -5 3 -10 17 -10 31 0 14 -6 35 -14 47 -8 12 -17
42 -21 67 -4 25 -13 52 -20 60 -6 8 -18 43 -25 77 -7 35 -19 68 -26 74 -8 6
-14 18 -14 27 0 36 -64 143 -124 205 -35 37 -67 67 -71 67 -5 0 -30 14 -57 31
-38 25 -50 39 -59 72 -18 64 -59 169 -77 197 -9 14 -25 41 -36 60 -24 45 -132
157 -171 177 -16 9 -35 22 -43 30 -8 8 -27 17 -43 20 -16 3 -34 12 -40 19 -12
14 -24 16 -47 7z"/>
</g>
</svg>
