<?xml version="1.0" standalone="no"?>
<!DOCTYPE svg PUBLIC "-//W3C//DTD SVG 20010904//EN"
 "http://www.w3.org/TR/2001/REC-SVG-20010904/DTD/svg10.dtd">
<svg version="1.0" xmlns="http://www.w3.org/2000/svg"
 width="300.000000pt" height="331.000000pt" viewBox="0 0 300.000000 331.000000"
 preserveAspectRatio="xMidYMid meet">
<metadata>
Created by potrace 1.10, written by Peter Selinger 2001-2011
</metadata>
<g transform="translate(0.000000,331.000000) scale(0.050000,-0.050000)"
fill="#000000" stroke="none">
<path d="M2964 6583 c-21 -14 -24 -99 -14 -425 17 -577 -18 -691 -199 -647
-52 13 -314 -55 -425 -110 -46 -22 -93 -41 -105 -41 -26 0 -236 -132 -298
-188 -57 -50 -173 -227 -232 -352 -106 -226 -249 -390 -464 -535 -156 -106
-282 -179 -437 -255 -99 -49 -207 -107 -240 -129 -33 -22 -76 -41 -95 -41 -19
0 -35 -8 -35 -18 0 -11 -31 -29 -68 -41 -37 -13 -86 -38 -108 -57 -23 -19 -66
-48 -98 -65 -100 -56 -140 -160 -94 -243 21 -38 77 -142 124 -230 281 -527
546 -610 1334 -420 155 37 626 31 700 -10 175 -95 218 -220 208 -606 -24 -991
28 -1508 206 -2045 l41 -125 1668 0 1667 0 0 1357 0 1358 -145 96 c-245 163
-530 399 -674 557 -242 266 -254 284 -330 452 -18 39 -41 86 -52 105 -10 19
-19 52 -19 74 0 21 -9 44 -20 51 -11 7 -20 35 -20 62 0 27 -13 69 -28 94 -16
24 -35 85 -42 134 -8 50 -26 104 -39 120 -14 17 -37 86 -51 155 -14 68 -38
135 -53 147 -15 13 -27 37 -27 54 0 104 -315 544 -390 544 -65 0 -211 130
-232 207 -35 126 -118 337 -154 393 -18 28 -50 82 -71 120 -52 95 -285 332
-356 361 -31 13 -57 31 -57 39 0 8 -29 26 -65 39 -36 14 -89 37 -118 53 -62
33 -59 32 -93 11z"/>
</g>
</svg>
