<?xml version="1.0" standalone="no"?>
<!DOCTYPE svg PUBLIC "-//W3C//DTD SVG 20010904//EN"
 "http://www.w3.org/TR/2001/REC-SVG-20010904/DTD/svg10.dtd">
<svg version="1.0" xmlns="http://www.w3.org/2000/svg"
 width="181.000000pt" height="221.000000pt" viewBox="0 0 181.000000 221.000000"
 preserveAspectRatio="xMidYMid meet">
<metadata>
Created by potrace 1.10, written by Peter Selinger 2001-2011
</metadata>
<g transform="translate(0.000000,221.000000) scale(0.100000,-0.100000)"
fill="#000000" stroke="none">
<path d="M651 2169 c-15 -45 -14 -156 4 -285 9 -60 18 -116 20 -124 3 -10 -10
-23 -40 -39 -85 -45 -136 -124 -159 -245 -30 -156 -92 -224 -295 -322 -156
-76 -171 -87 -171 -125 0 -32 38 -67 109 -104 89 -45 123 -49 253 -29 112 16
122 16 171 1 65 -21 126 -56 143 -82 12 -18 7 -31 -47 -119 -80 -134 -111
-232 -110 -355 0 -55 7 -116 16 -149 26 -87 76 -192 93 -192 18 0 14 21 -29
125 -31 76 -33 86 -33 215 0 118 3 142 22 192 13 32 24 61 25 65 0 5 5 13 9
18 25 31 55 84 50 89 -3 3 -1 6 5 6 13 0 43 61 43 88 0 53 -135 141 -230 150
-25 2 -84 -3 -131 -12 -47 -9 -101 -13 -120 -10 -47 8 -129 37 -129 45 0 4
-13 12 -29 19 -30 12 -46 35 -35 51 8 13 140 79 146 73 3 -2 11 2 18 11 7 8
18 15 25 15 37 0 215 153 215 185 0 8 4 15 9 15 15 0 35 65 55 171 6 37 33 88
67 127 16 18 29 30 29 27 0 -6 37 23 68 55 20 21 23 32 19 70 -3 25 -8 68 -11
95 -3 28 -8 60 -11 73 -8 33 -8 147 0 171 5 17 10 18 37 10 17 -5 34 -13 37
-17 3 -5 28 -26 56 -47 27 -21 57 -46 66 -56 9 -11 19 -19 22 -19 4 0 33 -26
65 -57 99 -99 130 -119 192 -126 37 -4 85 -26 133 -59 15 -11 27 -17 27 -14 0
3 14 -8 30 -24 17 -17 35 -30 40 -30 5 0 11 -9 15 -19 3 -10 16 -30 29 -42 22
-23 120 -189 110 -189 -2 0 3 -17 11 -37 25 -63 52 -204 54 -283 3 -93 7 -122
32 -233 23 -101 27 -113 82 -225 37 -75 69 -113 84 -98 3 3 -18 51 -46 108
-66 133 -97 257 -111 443 -12 157 -37 265 -90 381 -85 188 -258 344 -400 361
-45 5 -57 13 -147 96 -54 50 -111 104 -128 120 -47 46 -175 127 -200 127 -17
0 -26 -9 -34 -31z"/>
</g>
</svg>
