<?xml version="1.0" standalone="no"?>
<!DOCTYPE svg PUBLIC "-//W3C//DTD SVG 20010904//EN"
 "http://www.w3.org/TR/2001/REC-SVG-20010904/DTD/svg10.dtd">
<svg version="1.0" xmlns="http://www.w3.org/2000/svg"
 width="300.000000pt" height="318.000000pt" viewBox="0 0 300.000000 318.000000"
 preserveAspectRatio="xMidYMid meet">
<metadata>
Created by potrace 1.10, written by Peter Selinger 2001-2011
</metadata>
<g transform="translate(0.000000,318.000000) scale(0.100000,-0.100000)"
fill="#000000" stroke="none">
<path d="M820 3159 c-14 -6 -50 -15 -80 -20 -55 -8 -108 -27 -165 -56 -63 -33
-141 -74 -155 -83 -8 -6 -26 -14 -40 -20 -14 -5 -32 -14 -40 -19 -23 -14 -144
-51 -168 -51 -34 0 -104 -39 -132 -73 -23 -28 -24 -38 -23 -137 1 -129 18
-174 91 -241 89 -82 184 -138 309 -180 179 -61 260 -114 302 -197 11 -22 25
-43 31 -47 5 -3 10 -18 10 -33 0 -15 9 -44 20 -65 11 -20 20 -49 20 -64 0 -16
9 -41 20 -58 11 -16 20 -37 20 -46 0 -9 7 -22 15 -29 8 -7 15 -20 15 -29 0 -9
9 -33 20 -54 11 -20 20 -44 20 -52 0 -9 8 -33 19 -53 28 -56 52 -138 58 -201
3 -31 12 -68 19 -83 8 -15 15 -46 15 -70 2 -76 12 -98 54 -127 29 -19 44 -39
55 -72 8 -24 18 -49 22 -54 22 -33 50 -132 59 -210 12 -96 17 -108 61 -131 15
-8 37 -33 49 -57 61 -119 71 -141 76 -175 3 -20 11 -56 19 -80 8 -23 14 -62
14 -85 0 -51 7 -63 51 -85 28 -14 35 -23 37 -55 2 -27 10 -42 28 -54 14 -8 27
-13 30 -10 13 13 -33 112 -67 144 -31 30 -38 44 -45 96 -5 34 -8 70 -8 80 0
10 -7 17 -20 18 -15 1 -12 4 9 9 17 4 23 8 14 9 -10 1 -21 18 -28 44 -21 70
-98 203 -137 234 -33 27 -36 33 -45 108 -13 111 -88 304 -135 345 -39 34 -54
66 -54 114 0 19 -6 49 -14 67 -8 19 -17 59 -21 89 -11 88 -90 312 -156 442
-16 31 -29 66 -29 77 0 10 -9 38 -20 62 -11 24 -20 53 -20 65 0 11 -24 56 -52
99 -69 104 -131 146 -298 204 -69 24 -150 58 -180 76 -68 42 -176 138 -195
175 -21 41 -31 191 -15 230 14 34 75 74 130 85 68 14 166 48 225 80 33 18 89
48 125 68 71 39 147 65 258 92 80 19 255 22 312 5 19 -6 64 -15 100 -21 75
-12 146 -32 210 -60 25 -11 54 -22 65 -24 11 -2 22 -4 25 -5 3 -1 8 -2 13 -1
4 0 7 -4 7 -10 0 -6 7 -9 15 -5 8 3 15 1 15 -4 0 -6 34 -10 78 -10 84 0 102
-8 102 -49 0 -42 36 -103 111 -186 39 -44 82 -96 94 -115 95 -148 165 -260
165 -265 0 -4 28 -55 62 -113 33 -59 69 -120 78 -137 51 -89 136 -224 159
-251 14 -17 35 -44 45 -60 37 -56 214 -221 272 -254 105 -61 158 -82 217 -87
53 -5 57 -4 57 16 0 18 -6 21 -46 21 -90 0 -245 90 -371 218 -51 51 -93 97
-93 102 0 6 -17 29 -38 53 -21 23 -47 59 -57 80 -11 21 -27 46 -35 56 -19 22
-46 68 -61 104 -6 15 -15 27 -20 27 -5 0 -9 5 -9 11 0 7 -18 40 -40 75 -22 35
-40 65 -40 68 0 8 -106 190 -148 255 -23 35 -42 70 -42 77 0 7 -6 17 -13 21
-7 4 -21 22 -31 38 -11 17 -45 57 -76 90 -83 88 -100 116 -100 167 -1 70 -12
78 -121 78 -75 0 -102 4 -132 20 -20 11 -44 20 -52 20 -8 0 -32 9 -52 20 -21
11 -48 20 -61 20 -13 0 -35 6 -50 14 -15 7 -51 16 -81 20 -30 4 -79 14 -110
22 -63 16 -263 18 -301 3z"/>
</g>
</svg>
