<?xml version="1.0" standalone="no"?>
<!DOCTYPE svg PUBLIC "-//W3C//DTD SVG 20010904//EN"
 "http://www.w3.org/TR/2001/REC-SVG-20010904/DTD/svg10.dtd">
<svg version="1.0" xmlns="http://www.w3.org/2000/svg"
 width="300.000000pt" height="318.000000pt" viewBox="0 0 300.000000 318.000000"
 preserveAspectRatio="xMidYMid meet">
<metadata>
Created by potrace 1.10, written by Peter Selinger 2001-2011
</metadata>
<g transform="translate(0.000000,318.000000) scale(0.100000,-0.100000)"
fill="#000000" stroke="none">
<path d="M810 3155 c-19 -7 -50 -14 -68 -14 -47 -1 -170 -53 -277 -116 -49
-29 -54 -32 -85 -45 -14 -5 -32 -14 -40 -19 -20 -13 -149 -51 -171 -51 -31 0
-103 -41 -129 -73 -23 -29 -25 -38 -24 -137 1 -129 19 -174 96 -245 87 -80
180 -134 306 -177 117 -40 194 -78 243 -121 32 -28 99 -138 99 -163 0 -11 9
-36 20 -57 11 -20 20 -48 20 -62 0 -15 9 -43 20 -63 10 -20 29 -59 40 -87 12
-27 28 -62 36 -77 8 -14 14 -33 14 -43 0 -9 8 -33 19 -53 28 -54 49 -130 57
-197 4 -33 12 -71 19 -85 7 -14 15 -56 18 -95 5 -56 11 -73 28 -85 37 -26 79
-71 79 -87 0 -8 11 -38 25 -66 27 -57 50 -148 62 -242 7 -54 11 -62 45 -85 21
-14 47 -43 59 -65 53 -100 71 -141 76 -174 3 -20 11 -55 19 -79 8 -23 14 -60
14 -82 0 -54 8 -69 46 -85 23 -10 35 -22 39 -42 3 -15 11 -39 18 -53 l13 -25
727 -3 727 -2 0 750 0 750 -44 0 c-91 0 -246 90 -373 217 -51 51 -93 98 -93
103 0 6 -17 29 -38 53 -21 23 -47 59 -57 80 -11 21 -27 46 -35 55 -8 9 -21 28
-27 42 -7 14 -17 32 -22 40 -39 62 -112 189 -150 260 -24 47 -71 125 -103 174
-32 48 -58 94 -58 102 0 7 -6 17 -13 21 -7 4 -21 22 -31 38 -11 17 -45 57 -76
90 -84 89 -100 116 -100 167 0 67 -18 78 -125 78 -66 0 -98 5 -129 19 -92 43
-230 87 -316 101 -36 6 -83 15 -105 20 -59 14 -254 11 -295 -5z"/>
</g>
</svg>
