<?xml version="1.0" standalone="no"?>
<!DOCTYPE svg PUBLIC "-//W3C//DTD SVG 20010904//EN"
 "http://www.w3.org/TR/2001/REC-SVG-20010904/DTD/svg10.dtd">
<svg version="1.0" xmlns="http://www.w3.org/2000/svg"
 width="300.000000pt" height="533.000000pt" viewBox="0 0 300.000000 533.000000"
 preserveAspectRatio="xMidYMid meet">
<metadata>
Created by potrace 1.10, written by Peter Selinger 2001-2011
</metadata>
<g transform="translate(0.000000,533.000000) scale(0.100000,-0.100000)"
fill="#000000" stroke="none">
<path d="M2993 5040 c0 -41 2 -58 4 -37 2 20 2 54 0 75 -2 20 -4 3 -4 -38z"/>
<path d="M1478 4463 c29 -2 74 -2 100 0 26 2 2 3 -53 3 -55 0 -76 -1 -47 -3z"/>
<path d="M1358 4453 c12 -2 32 -2 45 0 12 2 2 4 -23 4 -25 0 -35 -2 -22 -4z"/>
<path d="M1648 4453 c12 -2 32 -2 45 0 12 2 2 4 -23 4 -25 0 -35 -2 -22 -4z"/>
<path d="M1278 4443 c6 -2 18 -2 25 0 6 3 1 5 -13 5 -14 0 -19 -2 -12 -5z"/>
<path d="M1755 4440 c17 -4 41 -8 55 -8 22 0 22 1 -5 8 -16 4 -41 8 -55 8 -22
0 -22 -1 5 -8z"/>
<path d="M1228 4433 c6 -2 18 -2 25 0 6 3 1 5 -13 5 -14 0 -19 -2 -12 -5z"/>
<path d="M1135 4415 c-54 -17 -33 -18 30 -1 28 8 41 14 30 14 -11 0 -38 -5
-60 -13z"/>
<path d="M1848 4423 c7 -3 16 -2 19 1 4 3 -2 6 -13 5 -11 0 -14 -3 -6 -6z"/>
<path d="M1888 4413 c7 -3 16 -2 19 1 4 3 -2 6 -13 5 -11 0 -14 -3 -6 -6z"/>
<path d="M1950 4395 c19 -7 42 -13 50 -13 8 0 -1 6 -20 13 -19 7 -42 13 -50
13 -8 0 1 -6 20 -13z"/>
<path d="M970 4360 c-8 -5 -10 -10 -5 -10 6 0 17 5 25 10 8 5 11 10 5 10 -5 0
-17 -5 -25 -10z"/>
<path d="M2080 4350 c8 -5 20 -10 25 -10 6 0 3 5 -5 10 -8 5 -19 10 -25 10 -5
0 -3 -5 5 -10z"/>
<path d="M845 4302 c-168 -88 -330 -216 -437 -345 -24 -29 9 0 72 63 126 126
219 195 374 276 56 30 97 54 91 53 -5 0 -51 -21 -100 -47z"/>
<path d="M2121 4336 c10 -9 129 -66 129 -61 0 5 -116 65 -126 65 -4 0 -5 -2
-3 -4z"/>
<path d="M2260 4266 c0 -3 9 -10 20 -16 11 -6 20 -8 20 -6 0 3 -9 10 -20 16
-11 6 -20 8 -20 6z"/>
<path d="M2315 4233 c6 -5 35 -27 65 -47 44 -31 48 -32 20 -8 -32 28 -107 77
-85 55z"/>
<path d="M1487 4143 c18 -2 50 -2 70 0 21 2 7 4 -32 4 -38 0 -55 -2 -38 -4z"/>
<path d="M2540 4050 c117 -116 179 -198 257 -340 29 -52 53 -91 53 -86 0 16
-81 158 -128 226 -63 90 -152 189 -225 252 -40 34 -25 16 43 -52z"/>
<path d="M1373 4133 c15 -2 37 -2 50 0 12 2 0 4 -28 4 -27 0 -38 -2 -22 -4z"/>
<path d="M1611 4136 c2 -2 36 -6 74 -9 42 -3 58 -2 40 3 -30 8 -122 13 -114 6z"/>
<path d="M1308 4123 c6 -2 18 -2 25 0 6 3 1 5 -13 5 -14 0 -19 -2 -12 -5z"/>
<path d="M1215 4105 c-54 -17 -33 -18 30 -1 28 8 41 14 30 14 -11 0 -38 -5
-60 -13z"/>
<path d="M1780 4110 c34 -11 60 -11 35 0 -11 5 -29 8 -40 8 -16 0 -15 -2 5 -8z"/>
<path d="M1910 4071 c114 -43 117 -43 86 -26 -32 19 -133 55 -150 54 -6 0 23
-13 64 -28z"/>
<path d="M1033 4040 c-35 -16 -63 -31 -63 -34 0 -4 130 51 139 60 12 11 -21 0
-76 -26z"/>
<path d="M1544 4009 c-22 -22 -50 -50 -63 -62 -13 -12 -35 -34 -49 -49 -17
-19 -35 -28 -56 -28 -27 0 -101 -18 -196 -46 -34 -10 -121 -67 -197 -127 -64
-51 -107 -106 -118 -150 -6 -22 -88 -115 -126 -142 -23 -17 -129 -65 -143 -65
-7 0 -22 -10 -34 -23 -29 -30 -29 -83 0 -145 24 -51 85 -122 106 -122 6 0 12
-4 12 -10 0 -5 19 -14 42 -21 32 -8 47 -8 62 1 10 7 62 34 114 62 127 66 159
94 207 180 27 49 53 81 80 99 52 34 150 70 171 62 27 -10 34 17 34 135 0 65 4
112 10 112 31 0 150 -92 150 -116 0 -4 6 -15 14 -23 7 -9 21 -40 31 -68 9 -29
20 -53 24 -53 4 0 26 -16 48 -35 47 -40 85 -107 103 -185 8 -30 17 -59 22 -65
4 -5 8 -17 8 -27 0 -26 36 -93 68 -130 15 -16 49 -41 75 -55 27 -13 88 -63
135 -110 48 -47 101 -96 117 -108 36 -27 177 -72 258 -81 32 -4 60 -10 62 -14
3 -4 -4 -15 -15 -25 -11 -10 -20 -23 -20 -28 0 -12 -95 -137 -147 -193 -21
-22 -67 -64 -103 -92 -36 -28 -73 -58 -83 -67 -18 -16 -45 -19 -63 -7 -7 4
-19 35 -28 70 -19 74 -49 130 -106 192 -51 56 -77 137 -90 275 -6 55 -19 127
-30 160 -41 121 -140 228 -223 242 -33 5 -56 20 -112 73 -85 80 -149 124 -170
116 -18 -7 -20 -88 -5 -181 9 -53 8 -62 -8 -72 -60 -43 -78 -75 -96 -164 -12
-56 -49 -91 -151 -144 -105 -54 -120 -72 -89 -107 36 -39 78 -48 208 -44 107
3 127 6 171 29 28 14 45 26 38 27 -7 0 -30 -9 -52 -21 -33 -17 -46 -19 -76
-10 -20 5 -74 7 -118 4 -69 -5 -87 -3 -116 14 -48 26 -49 41 -4 59 79 32 100
44 136 79 44 43 63 77 72 130 11 57 30 90 70 122 l36 28 -7 118 c-4 75 -3 117
3 117 16 0 83 -52 153 -118 36 -34 72 -62 80 -62 56 0 175 -93 213 -166 26
-51 54 -157 56 -214 4 -108 44 -245 86 -295 14 -17 16 -18 11 -2 -3 11 -2 16
4 12 6 -3 10 -10 10 -14 0 -5 16 -35 35 -67 34 -55 61 -131 52 -140 -5 -5 -86
58 -138 107 -19 19 -54 67 -78 107 -23 40 -55 87 -70 105 -16 18 -31 39 -34
47 -5 13 -6 13 -6 0 -1 -8 11 -28 25 -45 14 -16 46 -64 70 -106 45 -78 121
-158 211 -223 71 -51 72 -61 13 -91 -111 -56 -232 -92 -367 -110 -26 -3 -63
-8 -80 -11 -30 -4 -34 -2 -50 33 -10 21 -22 41 -28 45 -5 4 -15 31 -22 60
l-12 53 5 -50 c3 -27 12 -57 19 -65 8 -8 19 -28 25 -44 l10 -29 -92 6 c-172
11 -193 17 -209 64 -18 56 -7 208 20 268 12 27 27 52 33 56 17 11 87 -18 108
-43 11 -13 26 -43 35 -68 9 -25 23 -56 31 -70 17 -27 15 -20 -18 65 -32 86
-39 94 -92 114 -28 10 -56 28 -61 39 -6 11 -16 26 -21 33 -23 30 -24 63 -2 86
21 22 21 23 2 23 -30 0 -44 -20 -44 -60 0 -26 7 -43 24 -59 l25 -23 -24 -37
c-34 -52 -57 -144 -57 -221 0 -69 17 -144 36 -159 40 -30 314 -50 449 -32 474
63 857 407 952 854 64 298 -13 619 -206 862 l-58 73 -58 6 c-32 4 -86 11 -119
16 -34 6 -95 10 -136 10 -42 0 -93 6 -114 13 -22 8 -64 15 -94 16 -30 1 -71 6
-90 10 -33 6 -35 10 -40 51 -7 55 -20 80 -61 114 -42 35 -60 33 -105 -15z
m105 -24 c21 -25 31 -46 31 -69 0 -64 55 -96 161 -96 32 0 70 -5 86 -11 15 -6
48 -11 73 -10 41 1 83 -4 278 -29 45 -6 71 -15 89 -32 59 -55 139 -187 186
-308 44 -109 61 -212 61 -360 1 -151 -24 -289 -68 -386 -29 -63 -37 -65 -157
-37 -132 29 -168 50 -283 160 -64 62 -125 111 -154 124 -67 31 -104 85 -142
204 -17 55 -39 118 -48 140 -20 49 -80 126 -103 132 -10 3 -25 21 -34 41 -47
102 -57 120 -89 154 -19 20 -55 48 -80 63 -36 21 -49 24 -65 15 -18 -9 -21
-22 -23 -123 -2 -91 -6 -112 -18 -112 -26 -1 -85 -17 -97 -27 -7 -6 -13 -8
-13 -4 0 3 -22 -8 -49 -24 -43 -27 -101 -95 -101 -118 0 -17 -59 -83 -99 -112
-45 -33 -214 -120 -233 -120 -34 0 -100 46 -139 97 -36 46 -43 63 -45 105 l-3
50 95 44 c114 54 179 114 231 215 20 39 47 78 60 87 13 9 38 30 56 45 77 67
215 144 241 134 7 -3 23 1 37 9 13 7 41 13 62 14 53 0 70 11 161 102 43 43 84
78 91 78 7 0 27 -16 44 -35z"/>
<path d="M2030 4026 c0 -2 7 -7 16 -10 8 -3 12 -2 9 4 -6 10 -25 14 -25 6z"/>
<path d="M2070 4006 c0 -3 14 -12 30 -21 17 -9 30 -13 30 -11 0 3 -13 12 -30
21 -16 9 -30 13 -30 11z"/>
<path d="M874 3949 c-103 -67 -245 -214 -311 -320 -29 -46 -55 -93 -59 -104
-4 -11 16 17 44 63 97 158 195 263 340 359 72 49 78 53 70 53 -3 0 -41 -23
-84 -51z"/>
<path d="M2140 3967 c0 -2 21 -18 48 -36 35 -25 40 -26 17 -6 -30 26 -65 49
-65 42z"/>
<path d="M338 3868 c-53 -73 -125 -198 -113 -198 2 0 14 19 26 43 12 23 44 75
70 115 50 74 60 97 17 40z"/>
<path d="M2260 3876 c25 -28 80 -71 80 -63 0 2 -24 23 -52 47 -30 25 -42 32
-28 16z"/>
<path d="M197 3625 c-24 -50 -20 -58 4 -12 11 22 19 41 17 43 -3 2 -12 -12
-21 -31z"/>
<path d="M2851 3605 c0 -5 9 -28 20 -50 10 -22 16 -29 13 -15 -7 28 -33 80
-33 65z"/>
<path d="M161 3539 c-6 -18 -9 -34 -7 -36 2 -2 9 10 15 28 6 18 9 34 7 36 -2
2 -9 -10 -15 -28z"/>
<path d="M479 3474 c-5 -15 -8 -29 -5 -31 2 -2 8 10 14 26 13 38 5 41 -9 5z"/>
<path d="M136 3464 c-4 -14 -5 -28 -3 -31 3 -2 8 8 11 23 4 14 5 28 3 31 -3 2
-8 -8 -11 -23z"/>
<path d="M2901 3470 c0 -8 4 -24 9 -35 5 -13 9 -14 9 -5 0 8 -4 24 -9 35 -5
13 -9 14 -9 5z"/>
<path d="M456 3415 c-3 -9 -6 -22 -5 -28 0 -7 5 -1 10 12 5 13 8 26 5 28 -2 2
-6 -3 -10 -12z"/>
<path d="M121 3404 c0 -11 3 -14 6 -6 3 7 2 16 -1 19 -3 4 -6 -2 -5 -13z"/>
<path d="M2921 3394 c0 -11 3 -14 6 -6 3 7 2 16 -1 19 -3 4 -6 -2 -5 -13z"/>
<path d="M111 3364 c0 -11 3 -14 6 -6 3 7 2 16 -1 19 -3 4 -6 -2 -5 -13z"/>
<path d="M436 3355 c-3 -9 -6 -24 -5 -33 0 -9 5 -4 10 12 9 32 6 48 -5 21z"/>
<path d="M2932 3355 c0 -11 4 -33 8 -50 7 -27 8 -27 8 -5 0 14 -4 36 -8 50 -6
20 -8 21 -8 5z"/>
<path d="M102 3320 c0 -14 2 -19 5 -12 2 6 2 18 0 25 -3 6 -5 1 -5 -13z"/>
<path d="M417 3271 c-4 -18 -7 -43 -6 -55 1 -11 5 -1 10 24 5 25 7 49 6 55 -2
5 -7 -5 -10 -24z"/>
<path d="M92 3250 c0 -19 2 -27 5 -17 2 9 2 25 0 35 -3 9 -5 1 -5 -18z"/>
<path d="M2952 3230 c0 -19 2 -27 5 -17 2 9 2 25 0 35 -3 9 -5 1 -5 -18z"/>
<path d="M84 3065 c0 -82 2 -115 3 -72 2 43 2 110 0 150 -1 40 -3 5 -3 -78z"/>
<path d="M404 3070 c0 -69 1 -97 3 -62 2 34 2 90 0 125 -2 34 -3 6 -3 -63z"/>
<path d="M2964 3065 c0 -71 1 -99 3 -62 2 37 2 96 0 130 -2 34 -3 4 -3 -68z"/>
<path d="M742 2983 c-7 -12 -3 -27 14 -55 13 -21 24 -41 24 -45 1 -17 57 -71
89 -88 26 -13 48 -16 90 -12 76 8 177 30 188 41 8 8 -51 4 -184 -12 -57 -7
-65 -5 -99 18 -43 29 -104 124 -96 152 6 23 -14 24 -26 1z"/>
<path d="M411 2904 c1 -16 5 -40 9 -54 6 -17 7 -9 3 25 -6 56 -14 74 -12 29z"/>
<path d="M2952 2900 c0 -19 2 -27 5 -17 2 9 2 25 0 35 -3 9 -5 1 -5 -18z"/>
<path d="M92 2880 c0 -19 2 -27 5 -17 2 9 2 25 0 35 -3 9 -5 1 -5 -18z"/>
<path d="M2942 2830 c0 -14 2 -19 5 -12 2 6 2 18 0 25 -3 6 -5 1 -5 -13z"/>
<path d="M102 2815 c0 -11 4 -31 8 -45 6 -20 8 -21 8 -5 0 11 -4 31 -8 45 -6
20 -8 21 -8 5z"/>
<path d="M431 2804 c0 -11 3 -14 6 -6 3 7 2 16 -1 19 -3 4 -6 -2 -5 -13z"/>
<path d="M2932 2780 c0 -14 2 -19 5 -12 2 6 2 18 0 25 -3 6 -5 1 -5 -13z"/>
<path d="M2921 2734 c0 -11 3 -14 6 -6 3 7 2 16 -1 19 -3 4 -6 -2 -5 -13z"/>
<path d="M121 2724 c0 -11 3 -14 6 -6 3 7 2 16 -1 19 -3 4 -6 -2 -5 -13z"/>
<path d="M2906 2684 c-4 -14 -5 -28 -3 -31 3 -2 8 8 11 23 4 14 5 28 3 31 -3
2 -8 -8 -11 -23z"/>
<path d="M131 2694 c-1 -15 30 -106 35 -101 2 2 -5 28 -15 58 -11 30 -20 49
-20 43z"/>
<path d="M471 2685 c0 -5 6 -21 14 -35 8 -14 14 -20 14 -15 0 6 -6 21 -14 35
-8 14 -14 21 -14 15z"/>
<path d="M1430 2670 c-19 -6 -14 -7 23 -7 26 1 47 5 47 9 0 10 -37 9 -70 -2z"/>
<path d="M1510 2669 c0 -5 11 -9 25 -9 13 0 42 -6 62 -14 55 -21 93 -28 93
-17 0 5 -15 11 -32 14 -18 3 -59 12 -90 20 -32 8 -58 11 -58 6z"/>
<path d="M2881 2609 c-6 -18 -9 -34 -7 -36 2 -2 9 10 15 28 6 18 9 34 7 36 -2
2 -9 -10 -15 -28z"/>
<path d="M500 2611 c0 -6 4 -13 10 -16 6 -3 7 1 4 9 -7 18 -14 21 -14 7z"/>
<path d="M170 2575 c0 -5 5 -17 10 -25 5 -8 10 -10 10 -5 0 6 -5 17 -10 25 -5
8 -10 11 -10 5z"/>
<path d="M536 2550 c50 -106 192 -263 317 -351 67 -48 197 -119 214 -119 5 0
-28 20 -72 43 -44 23 -110 63 -145 88 -81 58 -213 194 -265 275 -64 98 -66
101 -49 64z"/>
<path d="M2852 2535 c-17 -37 -14 -45 4 -12 9 16 14 31 11 33 -2 2 -9 -7 -15
-21z"/>
<path d="M190 2526 c0 -10 70 -146 75 -146 3 0 -11 33 -31 73 -38 74 -44 85
-44 73z"/>
<path d="M2779 2388 c-7 -13 -19 -34 -27 -48 -14 -24 -13 -24 3 -5 20 24 48
75 41 75 -3 0 -11 -10 -17 -22z"/>
<path d="M278 2355 c71 -135 296 -368 434 -448 39 -22 22 -7 -77 65 -97 72
-222 201 -291 300 -60 87 -83 116 -66 83z"/>
<path d="M2682 2243 c-65 -88 -218 -236 -307 -298 -77 -53 -101 -73 -70 -57
33 16 145 101 208 156 56 49 159 166 206 234 41 59 14 33 -37 -35z"/>
<path d="M1090 2070 c8 -5 20 -10 25 -10 6 0 3 5 -5 10 -8 5 -19 10 -25 10 -5
0 -3 -5 5 -10z"/>
<path d="M1140 2050 c8 -5 22 -9 30 -9 10 0 8 3 -5 9 -27 12 -43 12 -25 0z"/>
<path d="M750 1886 c0 -7 130 -79 135 -75 2 2 -28 21 -66 42 -38 20 -69 35
-69 33z"/>
<path d="M2248 1864 c-38 -20 -36 -28 2 -9 17 9 30 18 30 20 0 7 -1 6 -32 -11z"/>
<path d="M2110 1795 c-14 -8 -20 -14 -15 -14 6 0 21 6 35 14 14 8 21 14 15 14
-5 0 -21 -6 -35 -14z"/>
<path d="M920 1796 c0 -6 157 -66 172 -66 7 1 -27 16 -77 35 -99 38 -95 37
-95 31z"/>
<path d="M2050 1770 c-8 -5 -10 -10 -5 -10 6 0 17 5 25 10 8 5 11 10 5 10 -5
0 -17 -5 -25 -10z"/>
<path d="M1995 1750 c-13 -6 -15 -9 -5 -9 8 0 22 4 30 9 18 12 2 12 -25 0z"/>
<path d="M1125 1720 c11 -5 27 -9 35 -9 9 0 8 4 -5 9 -11 5 -27 9 -35 9 -9 0
-8 -4 5 -9z"/>
<path d="M1895 1720 c-13 -5 -14 -9 -5 -9 8 0 24 4 35 9 13 5 14 9 5 9 -8 0
-24 -4 -35 -9z"/>
<path d="M1188 1703 c6 -2 18 -2 25 0 6 3 1 5 -13 5 -14 0 -19 -2 -12 -5z"/>
<path d="M1838 1703 c7 -3 16 -2 19 1 4 3 -2 6 -13 5 -11 0 -14 -3 -6 -6z"/>
<path d="M1255 1690 c17 -4 41 -8 55 -8 22 0 22 1 -5 8 -16 4 -41 8 -55 8 -22
0 -22 -1 5 -8z"/>
<path d="M1740 1690 c-34 -7 -34 -7 -5 -8 17 0 44 4 60 8 27 7 27 8 5 8 -14
-1 -41 -4 -60 -8z"/>
<path d="M1388 1673 c18 -2 45 -2 60 0 15 2 0 4 -33 4 -33 0 -45 -2 -27 -4z"/>
<path d="M1608 1673 c18 -2 45 -2 60 0 15 2 0 4 -33 4 -33 0 -45 -2 -27 -4z"/>
<path d="M1518 1663 c7 -3 16 -2 19 1 4 3 -2 6 -13 5 -11 0 -14 -3 -6 -6z"/>
</g>
</svg>
