<?xml version="1.0" standalone="no"?>
<!DOCTYPE svg PUBLIC "-//W3C//DTD SVG 20010904//EN"
 "http://www.w3.org/TR/2001/REC-SVG-20010904/DTD/svg10.dtd">
<svg version="1.0" xmlns="http://www.w3.org/2000/svg"
 width="300.000000pt" height="533.000000pt" viewBox="0 0 300.000000 533.000000"
 preserveAspectRatio="xMidYMid meet">
<metadata>
Created by potrace 1.10, written by Peter Selinger 2001-2011
</metadata>
<g transform="translate(0.000000,533.000000) scale(0.100000,-0.100000)"
fill="#000000" stroke="none">
<path d="M2185 4963 c-33 -37 -107 -112 -163 -169 -111 -109 -122 -114 -234
-114 -21 0 -56 -9 -78 -20 -22 -11 -56 -20 -77 -20 -21 0 -48 -7 -59 -15 -12
-8 -40 -20 -62 -28 -98 -34 -409 -273 -484 -373 -21 -27 -51 -83 -68 -124 -58
-143 -152 -253 -289 -335 -9 -5 -27 -17 -41 -25 -14 -9 -38 -20 -55 -24 -16
-4 -37 -14 -45 -21 -8 -7 -34 -18 -57 -24 -77 -21 -129 -115 -109 -198 17 -70
79 -204 113 -243 67 -78 138 -133 218 -167 95 -41 174 -52 519 -68 10 0 14 7
52 90 49 106 104 159 237 232 82 45 231 96 274 94 47 -2 52 15 43 164 -26 425
-28 405 42 388 63 -16 114 -37 160 -64 52 -31 178 -138 192 -164 6 -11 19 -26
29 -33 9 -7 17 -18 17 -24 0 -5 10 -23 21 -40 22 -31 89 -184 89 -204 0 -11
72 -64 88 -64 29 0 154 -126 188 -192 16 -29 32 -54 37 -56 4 -2 7 -12 7 -22
0 -9 6 -22 13 -28 7 -6 19 -41 27 -77 8 -36 20 -71 27 -77 7 -6 13 -19 13 -29
0 -10 5 -21 10 -24 6 -3 10 -19 10 -34 0 -16 7 -34 15 -41 8 -7 15 -20 15 -29
1 -52 86 -215 148 -281 l32 -34 0 1075 0 1076 -37 6 c-21 4 -63 13 -93 22 -30
8 -95 15 -145 15 -68 0 -101 5 -134 20 -24 11 -54 20 -67 20 -29 0 -44 31 -44
92 0 55 -49 156 -103 212 -39 41 -48 46 -88 46 -42 0 -47 -4 -104 -67z"/>
<path d="M1860 3865 c-6 -8 -9 -22 -6 -32 3 -10 10 -96 16 -191 14 -209 5
-266 -42 -276 -15 -3 -34 -3 -42 0 -8 3 -41 -4 -74 -15 -32 -12 -64 -21 -72
-21 -7 0 -21 -6 -29 -13 -9 -8 -32 -20 -51 -27 -58 -22 -157 -98 -189 -143
-16 -24 -48 -81 -70 -128 -50 -106 -101 -174 -176 -236 -70 -58 -177 -128
-255 -168 -30 -15 -66 -35 -80 -45 -14 -10 -35 -21 -47 -24 -13 -4 -23 -11
-23 -15 0 -5 -15 -14 -32 -22 -18 -7 -40 -18 -48 -25 -111 -94 -116 -109 -66
-182 20 -28 36 -54 36 -57 0 -32 130 -173 185 -202 17 -9 33 -20 36 -26 4 -5
47 -12 97 -15 92 -5 129 1 279 43 45 13 124 29 177 35 l96 12 45 77 c44 74 95
124 158 152 l29 13 -7 76 c-3 41 -11 102 -17 135 -16 86 -10 324 8 353 27 41
78 28 216 -57 20 -12 39 -28 42 -36 3 -8 11 -15 18 -15 6 0 37 -24 67 -54 249
-239 241 -233 310 -245 245 -42 479 -292 579 -621 11 -36 23 -78 26 -95 3 -16
10 -55 16 -85 6 -30 15 -120 19 -200 6 -107 8 -10 9 373 l2 519 -37 38 c-69
70 -113 120 -113 128 0 5 -9 17 -20 27 -11 10 -20 22 -20 27 0 8 -33 87 -51
120 -5 10 -9 27 -9 37 0 11 -4 22 -9 25 -5 3 -16 29 -25 58 -9 29 -20 62 -25
73 -5 11 -14 38 -20 60 -18 60 -98 216 -129 250 -40 44 -110 98 -165 126 -41
20 -50 31 -61 69 -55 180 -173 332 -316 405 -125 64 -121 63 -140 40z"/>
<path d="M1729 2784 c-24 -29 -24 -202 0 -347 12 -70 21 -136 21 -146 0 -11
-22 -32 -61 -56 -95 -59 -152 -148 -174 -275 -31 -174 -132 -284 -345 -375
-101 -43 -181 -84 -202 -103 -22 -19 -23 -50 -3 -79 23 -33 115 -90 185 -113
73 -24 165 -24 297 0 60 12 81 12 125 1 72 -18 162 -65 186 -96 19 -23 25 -25
74 -19 61 7 221 -9 305 -31 31 -8 88 -15 125 -15 46 0 70 -4 72 -12 3 -7 7
-26 11 -41 3 -17 37 -60 83 -105 81 -81 156 -177 282 -363 56 -82 180 -220
235 -261 31 -24 35 -29 15 -23 -51 15 -126 61 -182 113 -54 50 -154 178 -288
368 -30 42 -85 107 -122 143 -43 43 -72 80 -80 106 l-13 40 -58 -3 c-33 -2
-76 3 -104 12 -65 21 -223 38 -287 30 -80 -9 -179 -51 -258 -108 -40 -29 -103
-65 -140 -81 -95 -39 -113 -75 -89 -179 18 -75 111 -141 248 -175 45 -11 96
-27 112 -35 28 -15 91 -83 91 -98 0 -9 36 -83 107 -218 27 -53 53 -109 57
-125 4 -17 14 -49 23 -72 l16 -43 503 0 504 0 0 580 c0 492 -2 585 -15 609
-18 37 -52 229 -60 346 -10 138 -31 254 -65 346 -106 289 -316 493 -540 527
-44 6 -62 19 -201 144 -253 225 -348 282 -390 232z"/>
</g>
</svg>
