<?xml version="1.0" standalone="no"?>
<!DOCTYPE svg PUBLIC "-//W3C//DTD SVG 20010904//EN"
 "http://www.w3.org/TR/2001/REC-SVG-20010904/DTD/svg10.dtd">
<svg version="1.0" xmlns="http://www.w3.org/2000/svg"
 width="900.000000pt" height="1599.000000pt" viewBox="0 0 900.000000 1599.000000"
 preserveAspectRatio="xMidYMid meet">
<metadata>
Created by potrace 1.10, written by Peter Selinger 2001-2011
</metadata>
<g transform="translate(0.000000,1599.000000) scale(0.100000,-0.100000)"
fill="#000000" stroke="none">
<path d="M6735 15065 c-62 -33 -187 -154 -268 -260 -34 -44 -70 -89 -80 -100
-11 -11 -37 -45 -60 -75 -22 -30 -48 -62 -58 -70 -10 -8 -48 -43 -86 -77 -67
-60 -154 -136 -206 -181 -15 -12 -41 -44 -58 -72 -16 -27 -38 -52 -48 -55 -10
-3 -42 -29 -73 -59 -51 -50 -58 -54 -119 -60 -152 -16 -279 -25 -345 -26 -86
0 -163 -22 -216 -60 -55 -40 -85 -48 -225 -59 -129 -10 -142 -15 -245 -81 -34
-22 -73 -40 -88 -40 -54 0 -168 -50 -211 -92 -8 -8 -34 -25 -59 -37 -25 -13
-50 -26 -57 -30 -40 -21 -249 -167 -288 -201 -25 -22 -61 -48 -78 -57 -30 -15
-78 -55 -223 -185 -35 -32 -68 -58 -74 -58 -6 0 -51 -38 -101 -85 -49 -47 -94
-85 -99 -85 -12 0 -115 -91 -198 -172 -47 -46 -121 -149 -204 -283 -14 -22
-42 -81 -63 -130 -21 -50 -46 -110 -57 -135 -27 -61 -33 -77 -54 -135 -20 -58
-29 -74 -106 -178 -32 -43 -58 -83 -58 -89 0 -6 -64 -78 -141 -162 -136 -145
-203 -204 -299 -262 -25 -14 -67 -48 -95 -74 -35 -34 -66 -53 -101 -63 -67
-20 -100 -38 -148 -81 -23 -21 -54 -38 -75 -42 -81 -13 -169 -51 -211 -90 -26
-24 -128 -63 -165 -64 -65 -1 -238 -143 -274 -225 -20 -46 -51 -200 -51 -257
0 -67 38 -227 68 -286 32 -63 71 -159 92 -230 8 -24 33 -73 57 -110 23 -37 54
-91 69 -120 14 -29 39 -63 55 -75 17 -12 44 -46 61 -77 17 -30 43 -64 57 -75
14 -11 52 -46 84 -78 32 -31 63 -57 70 -57 7 0 35 -20 62 -43 62 -54 168 -119
255 -156 36 -16 94 -43 130 -60 36 -17 99 -37 140 -45 41 -7 100 -21 130 -30
110 -32 219 -47 430 -56 417 -19 734 -37 792 -46 31 -5 39 -3 45 12 3 11 14
29 24 41 9 13 20 40 24 60 3 21 17 49 30 63 21 23 85 162 85 185 0 19 42 89
83 140 191 233 207 248 392 350 108 59 132 76 145 100 13 25 31 32 170 71 45
12 84 32 126 66 56 43 67 48 114 48 31 0 78 10 118 26 112 43 146 56 172 66
86 34 112 39 142 29 42 -15 109 -13 130 3 10 7 25 33 34 57 13 38 14 67 5 219
-6 96 -13 229 -16 295 -8 156 -32 519 -44 665 -6 63 -11 167 -13 230 -3 105
-1 118 20 152 19 31 29 37 72 43 36 5 58 3 81 -9 18 -9 51 -16 74 -16 30 0 52
-8 83 -31 28 -20 71 -37 138 -53 87 -21 100 -28 142 -69 29 -27 73 -56 112
-72 78 -33 79 -33 170 -115 40 -36 89 -74 111 -85 36 -19 129 -116 129 -136 0
-5 18 -18 40 -29 42 -21 84 -76 95 -122 4 -15 24 -38 47 -54 40 -28 68 -69 68
-99 0 -9 20 -43 44 -74 25 -32 53 -76 63 -97 10 -21 33 -61 51 -89 18 -27 37
-68 43 -90 18 -66 76 -219 102 -267 14 -26 28 -67 31 -92 5 -31 15 -51 29 -62
95 -67 210 -134 247 -144 32 -8 57 -25 86 -56 31 -34 48 -44 72 -44 22 0 36
-8 51 -29 12 -16 21 -34 21 -39 0 -6 15 -19 34 -30 19 -11 53 -48 76 -82 23
-34 59 -73 80 -88 27 -19 49 -49 76 -105 21 -42 51 -89 66 -104 17 -16 35 -50
44 -81 9 -29 29 -66 45 -83 19 -20 29 -40 29 -60 0 -38 14 -65 56 -105 23 -21
34 -41 34 -60 0 -49 30 -158 50 -186 15 -20 20 -43 20 -91 0 -60 2 -65 40
-102 36 -35 40 -44 40 -86 0 -36 6 -55 25 -77 20 -24 25 -41 25 -83 0 -61 30
-133 63 -151 32 -16 37 -27 37 -91 0 -48 5 -66 30 -102 23 -33 30 -55 30 -89
0 -36 6 -52 30 -79 17 -19 30 -37 30 -41 0 -3 11 -29 25 -58 13 -28 28 -67 31
-86 4 -22 25 -55 56 -89 27 -30 65 -88 85 -129 27 -57 46 -81 77 -102 23 -15
49 -44 58 -64 19 -40 52 -68 80 -68 17 0 18 141 18 3219 l0 3218 -82 5 c-61 3
-117 16 -208 45 -173 56 -208 61 -525 73 -302 11 -355 18 -425 60 -59 35 -130
57 -203 63 -110 10 -114 19 -125 267 l-7 145 -47 95 c-25 52 -58 127 -73 165
-29 72 -56 108 -200 260 -74 78 -84 86 -140 99 -33 8 -87 17 -120 21 -53 5
-66 3 -110 -20z"/>
<path d="M5584 11594 c-19 -19 -34 -45 -34 -57 1 -66 30 -378 36 -388 9 -16
33 -501 33 -684 0 -127 -12 -222 -32 -241 -4 -4 -7 -24 -7 -44 0 -64 -20 -76
-163 -97 -23 -3 -49 1 -70 10 -38 18 -60 15 -136 -20 -29 -14 -70 -27 -90 -30
-20 -4 -65 -19 -99 -35 -35 -15 -81 -28 -101 -28 -28 0 -53 -11 -93 -39 -31
-21 -67 -42 -80 -46 -12 -4 -51 -20 -86 -36 -34 -16 -68 -29 -76 -29 -8 0 -21
-6 -28 -13 -7 -7 -39 -30 -71 -51 -31 -21 -60 -42 -63 -47 -3 -5 -13 -9 -23
-9 -19 0 -170 -127 -229 -192 -61 -68 -102 -123 -102 -139 0 -8 -13 -28 -30
-44 -16 -16 -30 -34 -30 -40 0 -9 -79 -169 -108 -220 -7 -11 -18 -38 -26 -60
-40 -112 -50 -132 -77 -160 -16 -17 -29 -38 -29 -47 0 -8 -7 -21 -15 -28 -8
-7 -15 -21 -15 -31 0 -10 -20 -38 -45 -63 -25 -26 -45 -54 -45 -64 -1 -29
-282 -306 -341 -336 -20 -10 -46 -31 -58 -47 -12 -16 -26 -29 -31 -29 -14 0
-117 -64 -151 -95 -45 -40 -323 -204 -382 -226 -27 -10 -60 -27 -71 -38 -12
-11 -67 -43 -122 -70 -56 -27 -104 -56 -107 -65 -4 -9 -11 -16 -18 -16 -6 0
-28 -13 -48 -29 -20 -15 -62 -36 -93 -45 -40 -11 -63 -25 -78 -46 -11 -16 -31
-32 -43 -36 -65 -20 -169 -78 -188 -104 -12 -16 -47 -42 -78 -57 -85 -43 -182
-146 -208 -222 -31 -88 -10 -147 112 -312 24 -33 58 -90 76 -127 17 -37 44
-83 58 -102 15 -19 31 -42 34 -50 4 -8 16 -28 27 -45 11 -16 23 -37 27 -46 12
-25 128 -142 260 -262 48 -43 101 -80 148 -102 40 -19 84 -45 97 -58 17 -18
38 -26 79 -31 31 -3 74 -13 95 -22 33 -14 71 -15 254 -12 208 5 274 13 348 44
18 8 51 14 73 14 37 0 67 7 174 42 82 26 153 46 260 72 33 8 85 21 115 30 30
8 93 17 140 21 47 4 141 15 210 26 69 10 144 19 167 19 46 0 39 -8 102 111 18
35 46 79 61 99 15 19 31 46 35 60 18 61 125 210 152 210 8 0 54 36 101 80 62
57 110 92 168 120 45 22 89 40 97 40 22 0 27 22 27 110 0 54 -6 95 -19 127
-12 33 -20 86 -24 168 -3 66 -10 132 -16 148 -6 15 -15 74 -20 131 -6 57 -18
119 -27 138 -15 32 -15 64 -1 424 9 215 21 403 27 419 6 15 28 45 49 66 l39
39 86 0 c91 0 79 4 241 -78 33 -16 68 -40 77 -51 10 -12 27 -21 38 -21 11 0
45 -22 75 -50 32 -29 65 -50 78 -50 22 0 94 -62 127 -109 8 -12 31 -27 51 -34
20 -7 43 -19 51 -27 8 -8 35 -33 59 -56 24 -22 66 -66 92 -97 27 -31 52 -57
57 -57 5 0 34 -27 66 -60 31 -33 65 -60 74 -60 9 0 130 -112 269 -250 l252
-250 50 0 c29 0 60 -7 75 -16 14 -10 54 -19 97 -21 40 -3 82 -12 94 -19 13 -8
58 -22 100 -30 43 -9 87 -24 98 -34 11 -10 32 -22 47 -25 15 -4 49 -22 75 -41
26 -19 60 -34 75 -34 17 0 47 -16 81 -44 30 -24 69 -52 87 -61 18 -9 53 -37
79 -61 25 -24 53 -47 63 -49 9 -3 23 -17 32 -30 9 -14 23 -25 32 -25 8 0 36
-24 62 -52 26 -29 70 -75 98 -103 28 -27 58 -63 67 -80 8 -16 36 -49 61 -72
49 -46 92 -107 101 -145 3 -13 30 -50 60 -83 30 -33 55 -68 55 -77 0 -9 16
-37 35 -62 19 -26 35 -50 35 -55 0 -5 18 -36 40 -69 22 -33 40 -71 40 -85 0
-14 11 -38 24 -54 32 -39 56 -88 56 -115 0 -13 16 -54 35 -93 19 -38 35 -78
35 -88 0 -10 11 -51 24 -90 13 -40 26 -87 30 -105 3 -19 14 -46 24 -60 24 -35
30 -58 42 -170 6 -55 18 -108 30 -132 14 -28 20 -59 20 -110 0 -42 6 -86 16
-108 24 -56 43 -296 50 -607 6 -313 8 -345 29 -345 13 0 15 200 15 1545 0
1292 -2 1545 -14 1545 -7 0 -34 27 -61 61 -26 33 -65 71 -86 85 -21 13 -47 41
-58 61 -10 21 -40 52 -65 70 -27 19 -51 47 -60 68 -9 20 -30 44 -50 56 -25 15
-44 40 -70 92 -19 40 -51 88 -70 106 -26 25 -47 64 -77 140 -22 59 -51 117
-65 132 -16 17 -24 37 -24 62 0 23 -12 58 -30 90 -22 40 -30 67 -30 104 0 40
-5 54 -26 74 -39 36 -64 93 -64 143 0 32 -8 56 -25 82 -16 23 -25 51 -25 75 0
30 -8 48 -34 76 -28 32 -34 48 -40 102 -3 35 -10 69 -16 76 -13 16 -50 135
-50 165 -1 33 -19 63 -52 90 -20 15 -28 30 -28 53 0 19 -13 51 -30 77 -16 25
-30 53 -30 63 0 25 -36 93 -53 100 -7 3 -29 38 -49 79 -23 48 -48 83 -72 101
-20 15 -54 54 -76 87 -22 32 -49 61 -59 65 -11 3 -35 24 -52 47 -18 22 -50 48
-71 58 -20 9 -47 28 -58 42 -11 15 -42 34 -68 44 -26 10 -72 33 -102 52 -30
18 -62 37 -70 42 -8 5 -36 18 -62 29 -45 19 -47 21 -68 90 -11 38 -25 73 -30
76 -6 3 -10 26 -10 51 0 43 -22 100 -60 154 -10 14 -30 59 -45 100 -15 41 -32
90 -39 108 -12 32 -45 81 -96 145 -46 58 -120 172 -120 185 0 16 -172 186
-303 300 -59 51 -124 97 -169 119 -40 20 -85 47 -100 61 -32 29 -132 72 -169
72 -15 0 -53 18 -85 40 -75 51 -106 52 -150 4z"/>
<path d="M5197 8352 c-26 -27 -40 -52 -47 -87 -5 -28 -15 -75 -21 -105 -20
-95 -5 -505 25 -700 14 -91 32 -214 41 -275 9 -60 22 -141 30 -180 8 -38 16
-99 17 -135 l3 -64 -89 -49 c-49 -26 -122 -71 -163 -99 -78 -54 -228 -204
-253 -254 -8 -16 -26 -45 -38 -64 -78 -115 -152 -310 -152 -397 0 -23 -5 -54
-11 -70 -6 -15 -15 -58 -20 -95 -15 -119 -45 -198 -141 -370 -70 -125 -215
-271 -396 -399 -124 -87 -316 -196 -422 -239 -87 -35 -252 -108 -319 -140 -34
-17 -64 -30 -66 -30 -3 0 -57 -26 -121 -57 -94 -46 -124 -66 -159 -107 -52
-63 -65 -87 -65 -123 0 -56 75 -161 156 -217 172 -119 229 -151 369 -207 55
-22 109 -44 120 -50 43 -21 205 -43 320 -43 129 -1 306 16 395 39 146 36 323
58 400 50 108 -11 300 -75 445 -147 166 -82 195 -103 242 -174 20 -30 46 -57
57 -60 12 -3 64 2 116 11 120 19 251 19 360 0 55 -10 112 -13 160 -9 58 5 85
2 120 -11 25 -10 79 -21 120 -25 41 -4 107 -20 145 -34 39 -14 85 -26 103 -26
18 0 47 -8 65 -17 27 -14 56 -17 177 -14 79 1 164 6 189 11 43 8 47 7 82 -28
32 -32 37 -45 44 -102 8 -66 20 -110 34 -120 4 -3 22 -26 40 -52 18 -25 76
-80 130 -122 53 -42 116 -99 141 -128 25 -28 64 -71 88 -95 23 -23 42 -48 42
-54 0 -10 61 -93 110 -149 25 -29 39 -46 99 -118 45 -55 82 -107 94 -132 15
-33 146 -223 211 -306 39 -49 77 -102 85 -119 8 -16 23 -36 33 -43 10 -7 25
-29 32 -47 8 -19 33 -54 55 -78 23 -24 41 -48 41 -54 0 -5 16 -24 35 -43 20
-19 60 -71 90 -116 35 -54 76 -99 119 -133 36 -29 68 -60 71 -71 3 -11 19 -30
34 -43 15 -12 32 -31 37 -40 12 -21 163 -149 204 -174 16 -9 30 -21 30 -25 0
-4 12 -14 28 -23 l27 -16 -41 4 c-23 3 -89 28 -147 56 -58 28 -109 51 -114 51
-4 0 -20 11 -34 24 -14 13 -36 29 -48 36 -56 29 -203 152 -259 215 -20 22 -70
74 -112 115 -41 41 -93 101 -114 133 -21 32 -56 77 -77 100 -22 23 -39 47 -39
53 0 6 -12 21 -26 35 -14 13 -37 43 -51 67 -14 23 -28 42 -32 42 -4 0 -15 15
-26 33 -10 17 -50 75 -89 127 -39 53 -75 103 -81 112 -39 65 -174 254 -215
303 -83 99 -135 168 -148 198 -6 15 -16 27 -20 27 -5 0 -36 31 -69 69 -33 38
-101 103 -150 145 -123 103 -173 170 -180 244 -7 66 -24 106 -56 127 -20 13
-33 13 -113 0 -114 -19 -221 -19 -256 -1 -15 8 -62 22 -105 32 -43 9 -90 23
-105 30 -15 8 -51 14 -80 14 -29 0 -66 7 -82 15 -19 10 -59 15 -125 15 -53 0
-127 7 -166 15 -87 19 -144 19 -265 0 -52 -8 -114 -15 -137 -15 -41 0 -120
-21 -155 -40 -31 -17 -122 -50 -139 -50 -22 0 -83 -28 -136 -63 -24 -15 -48
-27 -54 -27 -11 0 -98 -61 -167 -118 -19 -15 -39 -29 -45 -31 -7 -2 -29 -19
-51 -38 -21 -19 -52 -41 -70 -48 -17 -7 -42 -25 -55 -39 -14 -14 -30 -26 -37
-26 -13 0 -76 -25 -104 -41 -62 -36 -93 -49 -115 -49 -54 0 -173 -80 -220
-148 -33 -49 -35 -56 -35 -134 0 -86 20 -218 47 -302 17 -55 80 -145 119 -171
14 -9 42 -31 62 -49 20 -18 53 -41 72 -52 19 -10 42 -24 50 -30 17 -12 109
-60 181 -93 26 -12 78 -28 117 -36 39 -8 83 -19 97 -25 14 -5 40 -10 58 -10
17 0 49 -6 72 -14 22 -8 66 -22 98 -31 144 -42 287 -150 343 -256 8 -16 18
-29 22 -29 10 0 42 -65 42 -86 0 -15 21 -57 65 -129 13 -22 24 -53 25 -69 0
-16 17 -55 38 -87 20 -32 54 -85 75 -117 20 -32 37 -65 37 -73 0 -8 21 -45 45
-83 25 -38 45 -77 45 -87 0 -10 13 -33 28 -51 16 -18 38 -64 51 -102 12 -38
31 -82 42 -98 19 -26 32 -74 58 -204 4 -23 18 -56 30 -73 12 -17 30 -61 40
-98 l17 -68 1522 -3 1522 -2 0 1736 c0 1722 0 1736 -20 1752 -28 24 -110 272
-110 336 0 16 -6 52 -14 80 -8 28 -19 76 -25 106 -5 30 -14 78 -20 105 -14 74
-40 336 -51 535 -16 269 -41 453 -86 632 -8 32 -14 69 -14 84 0 14 -6 40 -14
57 -8 18 -27 68 -41 112 -25 75 -57 164 -76 210 -4 11 -20 49 -35 85 -50 123
-208 412 -254 465 -10 11 -39 52 -66 90 -110 161 -326 388 -466 491 -180 132
-277 191 -375 228 -209 78 -274 96 -383 107 -121 12 -146 21 -196 67 -22 20
-103 93 -179 162 -76 69 -168 153 -204 186 -36 34 -95 85 -130 113 -36 28 -83
72 -105 97 -37 42 -209 187 -332 279 -137 103 -267 187 -357 229 -80 38 -107
46 -155 46 -54 0 -61 -3 -95 -38z"/>
</g>
</svg>
