<?xml version="1.0" standalone="no"?>
<!DOCTYPE svg PUBLIC "-//W3C//DTD SVG 20010904//EN"
 "http://www.w3.org/TR/2001/REC-SVG-20010904/DTD/svg10.dtd">
<svg version="1.0" xmlns="http://www.w3.org/2000/svg"
 width="1080.000000pt" height="1920.000000pt" viewBox="0 0 1080.000000 1920.000000"
 preserveAspectRatio="xMidYMid meet">
<metadata>
Created by potrace 1.10, written by Peter Selinger 2001-2011
</metadata>
<g transform="translate(0.000000,1920.000000) scale(0.100000,-0.100000)"
fill="#cad2c5" stroke="none">
<path d="M3355 18731 c-38 -23 -88 -77 -152 -162 -49 -65 -146 -161 -196 -194
-15 -9 -29 -25 -32 -35 -3 -9 -28 -36 -55 -59 l-50 -42 -129 -9 c-112 -7 -135
-12 -173 -34 -31 -18 -66 -27 -117 -32 -51 -5 -83 -14 -107 -30 -18 -13 -53
-28 -76 -35 -44 -11 -78 -30 -196 -109 -107 -71 -177 -125 -327 -255 -22 -19
-67 -57 -101 -85 -93 -77 -159 -176 -218 -328 -20 -51 -57 -122 -82 -159 -58
-85 -163 -194 -229 -238 -27 -18 -59 -42 -69 -54 -11 -12 -27 -21 -36 -21 -9
0 -37 -13 -61 -30 -24 -16 -61 -35 -83 -41 -21 -6 -55 -21 -75 -34 -20 -13
-56 -29 -81 -35 -56 -15 -128 -72 -148 -119 -10 -23 -15 -66 -15 -121 0 -78 3
-93 41 -181 23 -53 42 -99 42 -102 0 -10 71 -122 84 -132 7 -5 20 -23 29 -40
9 -16 41 -50 72 -75 31 -25 65 -53 76 -62 42 -35 207 -107 290 -127 113 -26
145 -30 399 -41 118 -6 224 -12 235 -15 15 -4 23 1 33 22 6 15 12 31 12 37 0
5 6 17 14 25 8 9 25 44 39 78 40 99 126 194 228 253 48 28 89 56 92 64 3 7 29
19 59 26 29 7 66 23 81 36 16 13 32 24 35 25 52 5 79 11 144 37 59 23 87 29
122 25 69 -8 70 -1 51 311 -30 487 -30 484 -9 507 13 14 26 19 44 15 14 -3 41
-8 60 -12 19 -3 42 -12 50 -19 8 -7 39 -18 68 -25 29 -7 58 -20 65 -31 8 -10
31 -26 53 -35 21 -9 58 -34 82 -55 23 -22 52 -44 65 -50 12 -5 33 -25 46 -44
13 -19 32 -37 43 -41 11 -3 26 -21 34 -39 7 -19 22 -40 33 -47 10 -7 26 -29
35 -48 8 -19 33 -62 54 -95 20 -33 43 -80 51 -104 7 -24 24 -68 37 -97 13 -29
24 -59 24 -67 0 -17 118 -97 143 -97 9 0 22 -9 29 -19 8 -11 26 -23 41 -26 15
-4 27 -10 27 -15 0 -6 23 -33 105 -120 18 -19 36 -45 39 -56 4 -12 18 -34 31
-48 14 -15 25 -34 25 -42 0 -9 9 -27 20 -41 11 -14 20 -35 20 -47 0 -12 9 -27
19 -33 13 -8 21 -29 26 -62 4 -28 11 -53 16 -57 5 -3 9 -22 9 -43 0 -25 7 -44
20 -56 11 -10 22 -33 26 -51 3 -19 10 -37 15 -40 5 -3 9 -20 9 -39 0 -21 9
-44 25 -63 14 -17 25 -43 25 -58 0 -16 7 -38 15 -48 8 -11 15 -32 15 -47 0
-15 5 -31 10 -34 12 -8 50 -84 50 -101 0 -7 16 -31 35 -54 19 -23 35 -48 35
-55 0 -8 12 -23 27 -35 15 -11 35 -34 45 -50 10 -17 22 -30 28 -30 7 0 10 529
10 1615 l0 1615 -43 0 c-23 0 -70 10 -102 21 -47 17 -100 24 -245 31 -155 8
-191 13 -220 30 -19 11 -62 26 -95 33 -69 13 -72 19 -74 134 -2 130 -138 355
-229 381 -56 15 -104 12 -137 -9z"/>
<path d="M2789 16997 c-8 -17 -8 -54 1 -128 6 -57 15 -187 20 -289 8 -159 7
-193 -7 -245 -9 -33 -20 -64 -25 -70 -4 -5 -41 -10 -81 -11 -50 -1 -93 -9
-142 -28 -38 -14 -80 -26 -91 -26 -12 0 -32 -9 -46 -20 -14 -10 -48 -28 -76
-39 -99 -39 -258 -164 -297 -234 -82 -145 -106 -192 -112 -215 -3 -14 -19 -45
-35 -68 -15 -23 -28 -45 -28 -49 0 -4 -11 -21 -25 -39 -14 -17 -34 -41 -43
-53 -9 -13 -46 -48 -82 -78 -36 -30 -73 -63 -83 -72 -9 -9 -32 -26 -51 -37
-18 -12 -59 -38 -91 -60 -32 -21 -85 -53 -119 -71 -91 -49 -184 -103 -214
-124 -15 -10 -39 -21 -54 -25 -16 -3 -28 -11 -28 -16 0 -5 -21 -18 -46 -29
-45 -20 -69 -37 -156 -111 -77 -66 -79 -115 -8 -219 20 -31 57 -90 81 -131 50
-87 174 -213 235 -241 23 -10 46 -25 53 -32 18 -22 152 -41 244 -34 87 7 242
37 292 56 48 20 183 48 290 61 152 19 157 21 180 66 11 21 28 48 38 58 9 11
17 28 17 38 0 10 4 18 9 18 5 0 12 8 16 19 6 21 39 61 49 61 4 0 18 10 31 23
65 59 75 67 84 67 6 0 26 8 46 17 33 16 35 19 35 68 0 28 -4 55 -9 61 -5 5
-12 43 -16 84 -3 41 -8 103 -11 138 -3 34 -10 62 -15 62 -12 0 -11 120 1 300
10 131 13 147 33 162 24 19 127 25 127 8 0 -5 9 -10 20 -10 11 0 20 -4 20 -10
0 -5 9 -10 20 -10 11 0 20 -4 20 -9 0 -5 13 -14 29 -21 16 -6 37 -20 47 -31 9
-10 24 -19 33 -19 9 0 30 -16 46 -35 17 -19 35 -35 42 -35 6 0 52 -40 102 -90
50 -49 95 -90 100 -90 5 0 66 -56 135 -125 104 -105 129 -125 155 -125 16 0
33 -4 36 -10 3 -5 23 -10 44 -10 21 0 52 -7 67 -15 16 -8 37 -15 46 -15 9 0
40 -13 68 -30 28 -16 60 -30 70 -30 11 0 20 -4 20 -10 0 -5 6 -10 13 -10 7 0
19 -9 27 -20 8 -11 20 -20 26 -20 12 0 27 -13 121 -101 76 -73 150 -157 166
-190 8 -19 26 -47 39 -61 13 -15 32 -44 43 -65 11 -21 27 -49 37 -62 10 -13
18 -32 18 -42 0 -11 4 -19 8 -19 12 0 32 -47 32 -75 0 -14 3 -25 8 -25 12 0
32 -52 32 -82 0 -15 5 -28 10 -28 6 0 10 -11 10 -23 0 -13 7 -38 16 -56 15
-30 20 -52 45 -206 13 -79 27 -229 38 -395 5 -94 8 102 10 641 l1 775 -82 86
c-117 121 -148 156 -148 167 0 5 -11 23 -24 39 -14 16 -34 52 -46 81 -11 29
-27 60 -35 68 -8 8 -15 24 -15 36 -1 12 -7 33 -15 47 -8 14 -14 37 -15 53 0
15 -4 27 -8 27 -12 0 -32 47 -32 75 0 13 -4 27 -10 30 -5 3 -10 19 -10 34 0
15 -9 36 -20 46 -11 10 -20 30 -20 45 0 15 -7 41 -15 56 -8 16 -18 45 -21 64
-4 19 -15 43 -25 53 -11 10 -19 25 -20 35 0 16 -12 40 -68 143 -13 24 -35 56
-50 71 -93 96 -117 118 -128 118 -7 0 -17 9 -23 20 -6 11 -17 20 -25 20 -8 0
-38 14 -67 30 -29 17 -60 34 -68 38 -7 5 -26 45 -40 90 -15 45 -31 87 -37 94
-5 7 -18 36 -28 63 -9 28 -39 80 -66 118 -27 37 -49 72 -49 77 0 24 -196 198
-249 222 -21 9 -42 21 -46 27 -8 14 -71 41 -95 41 -10 0 -23 7 -30 15 -20 24
-69 19 -81 -8z"/>
<path d="M2611 15391 c-11 -11 -25 -37 -31 -58 -16 -52 -8 -337 13 -478 9 -60
21 -139 26 -174 11 -68 8 -81 -14 -81 -7 0 -15 -3 -17 -7 -1 -5 -21 -17 -42
-28 -82 -42 -190 -166 -230 -265 -10 -25 -22 -54 -27 -65 -4 -11 -10 -38 -13
-60 -9 -73 -23 -140 -35 -170 -26 -65 -36 -85 -43 -85 -5 0 -8 -6 -8 -13 0 -7
-14 -29 -31 -48 -17 -19 -34 -39 -37 -44 -4 -6 -29 -29 -57 -50 -27 -22 -52
-43 -55 -46 -3 -4 -27 -19 -55 -34 -27 -16 -52 -31 -55 -34 -3 -4 -30 -19 -60
-33 -30 -14 -75 -36 -99 -47 -25 -12 -49 -21 -53 -21 -5 0 -53 -22 -109 -49
-145 -72 -183 -121 -142 -181 24 -35 83 -89 105 -96 10 -3 18 -10 18 -15 0 -5
9 -9 19 -9 11 0 21 -3 23 -7 4 -11 95 -52 155 -72 58 -18 166 -23 253 -11 47
6 103 14 125 17 22 3 44 9 50 14 13 12 152 11 160 -1 3 -5 17 -10 30 -10 24 0
80 -22 171 -66 51 -25 114 -78 114 -96 0 -6 35 -8 93 -4 143 10 332 -11 481
-53 55 -15 88 -18 156 -14 101 7 114 -1 124 -70 7 -47 30 -76 136 -170 50 -44
125 -135 223 -269 48 -66 157 -221 172 -245 6 -9 16 -23 23 -32 46 -57 62 -80
62 -90 0 -6 4 -11 10 -11 5 0 22 -19 38 -42 42 -60 177 -200 242 -249 60 -45
45 -46 -50 -2 -76 36 -198 124 -230 168 -8 11 -29 34 -46 50 -45 42 -172 207
-284 370 -106 154 -166 228 -272 336 -95 95 -108 112 -108 142 0 53 -19 62
-129 62 -88 1 -162 14 -269 47 -46 14 -317 14 -367 0 -68 -19 -148 -48 -195
-73 -37 -19 -141 -90 -160 -109 -19 -19 -75 -51 -130 -74 -178 -75 -196 -98
-180 -222 13 -89 40 -155 74 -177 13 -9 30 -23 39 -31 39 -39 166 -95 277
-121 63 -15 135 -38 161 -51 47 -26 121 -110 134 -154 4 -14 16 -39 26 -56 11
-17 19 -36 19 -43 0 -6 27 -58 60 -115 33 -57 60 -108 60 -113 0 -5 5 -14 11
-20 16 -16 66 -144 75 -190 3 -21 12 -45 19 -53 8 -8 16 -32 20 -52 l7 -38
759 0 759 0 0 863 c0 860 -2 912 -33 943 -4 4 -7 20 -7 35 0 15 -4 31 -10 34
-5 3 -10 19 -10 35 0 16 -4 39 -9 52 -17 43 -32 153 -42 308 -16 237 -28 323
-64 440 -9 30 -19 67 -22 83 -3 15 -9 30 -14 33 -5 3 -9 13 -9 24 0 10 -9 35
-20 57 -10 21 -30 61 -43 88 -25 53 -49 97 -57 105 -3 3 -26 36 -50 75 -42 65
-249 285 -268 285 -5 0 -21 10 -35 23 -15 12 -53 35 -84 50 -32 16 -66 33 -75
38 -28 14 -98 31 -163 38 -66 7 -76 11 -120 53 -16 15 -44 40 -61 55 -156 139
-195 174 -237 213 -27 25 -54 50 -60 56 -34 30 -193 147 -213 156 -13 6 -24
15 -24 20 0 4 -9 8 -20 8 -11 0 -20 3 -20 8 0 7 -69 32 -90 32 -5 0 -19 -9
-29 -19z"/>
</g>
</svg>
