<?xml version="1.0" standalone="no"?>
<!DOCTYPE svg PUBLIC "-//W3C//DTD SVG 20010904//EN"
 "http://www.w3.org/TR/2001/REC-SVG-20010904/DTD/svg10.dtd">
<svg version="1.0" xmlns="http://www.w3.org/2000/svg"
 width="300.000000pt" height="533.000000pt" viewBox="0 0 300.000000 533.000000"
 preserveAspectRatio="xMidYMid meet">
<metadata>
Created by potrace 1.10, written by Peter Selinger 2001-2011
</metadata>
<g transform="translate(0.000000,533.000000) scale(0.050000,-0.050000)"
fill="#000000" stroke="none">
<path d="M5987 10080 c0 -82 3 -116 8 -75 4 41 4 109 0 150 -5 41 -8 8 -8 -75z"/>
<path d="M2667 8911 c-657 -89 -1226 -369 -1688 -830 -284 -283 -580 -713
-518 -752 25 -15 63 29 46 55 -5 9 0 16 12 16 11 0 21 14 21 31 0 17 9 26 20
19 12 -7 20 -6 18 4 -3 15 -1 23 12 61 3 8 12 35 20 60 8 25 27 45 41 45 15 0
33 10 41 23 9 16 5 18 -14 7 -15 -9 -8 4 17 28 25 24 45 53 45 64 0 11 9 15
20 8 11 -7 21 -3 23 9 1 11 3 30 5 40 3 27 193 221 216 221 10 0 13 8 7 18
-10 16 47 78 62 67 4 -3 9 2 11 10 3 8 32 37 65 65 34 27 68 61 77 75 9 14 26
20 38 12 13 -8 16 -4 8 10 -9 14 0 23 23 23 21 0 77 36 124 79 48 44 94 75
104 69 9 -6 17 -2 17 7 0 23 146 105 188 105 17 0 32 8 32 17 0 18 131 82 185
90 18 3 49 19 69 36 20 17 107 46 195 65 87 18 170 43 184 54 14 12 35 16 46
9 12 -8 21 -5 21 5 0 10 34 18 75 19 81 1 154 13 210 35 19 8 35 6 35 -5 0
-21 130 -21 152 0 7 7 30 5 49 -6 20 -10 41 -12 46 -4 7 11 143 17 143 6 0 -2
97 -6 216 -11 119 -4 228 -17 242 -28 14 -12 32 -16 39 -8 7 7 13 -3 13 -21 0
-27 8 -30 37 -15 26 14 44 13 61 -4 18 -18 27 -18 40 3 13 21 19 21 28 -3 6
-16 51 -35 103 -43 57 -8 87 -22 79 -35 -8 -12 -2 -17 14 -12 15 5 40 -3 54
-17 15 -15 45 -27 67 -27 21 0 99 -31 171 -70 73 -38 142 -70 154 -70 12 0 34
-18 47 -40 14 -22 39 -40 55 -40 17 0 30 -10 30 -21 0 -12 7 -17 16 -11 9 5
31 -5 49 -24 55 -58 90 -82 103 -69 7 6 12 2 12 -9 0 -11 36 -45 80 -74 44
-29 81 -68 82 -87 0 -19 5 -25 11 -12 11 28 115 -65 134 -121 8 -21 19 -32 26
-26 15 15 65 -32 54 -51 -5 -8 0 -15 12 -15 12 0 31 -23 41 -51 11 -28 29 -46
40 -39 11 7 15 -1 9 -16 -7 -18 5 -33 31 -40 24 -6 48 -30 54 -53 6 -22 25
-41 42 -41 17 0 25 -6 18 -13 -7 -7 6 -39 29 -71 65 -92 135 -231 122 -244 -6
-7 -1 -12 13 -12 13 0 19 -9 12 -20 -7 -11 -2 -20 10 -20 12 0 16 -10 8 -23
-8 -13 -1 -33 16 -45 47 -35 83 -112 52 -112 -16 0 -18 -6 -6 -15 11 -8 34
-42 50 -75 16 -33 39 -67 50 -75 12 -9 10 -15 -5 -15 -17 0 -20 -11 -8 -35 37
-74 59 -166 49 -205 -6 -23 -1 -40 13 -40 13 0 21 -20 18 -45 -3 -25 6 -65 20
-90 16 -30 17 -45 3 -45 -14 0 -14 -15 3 -45 63 -119 30 167 -54 457 -385
1333 -1757 2209 -3162 2019z"/>
<path d="M2707 8305 c15 -24 -19 -35 -82 -26 -14 1 -25 -8 -25 -21 0 -16 24
-19 75 -11 41 7 104 13 140 13 43 0 65 10 65 29 0 23 -11 25 -60 8 -47 -16
-69 -15 -94 6 -23 19 -29 19 -19 2z"/>
<path d="M2900 8296 c0 -9 65 -16 143 -16 79 0 140 4 135 8 -16 16 -278 23
-278 8z"/>
<path d="M3460 8290 c0 -12 -53 -19 -125 -17 l-125 4 140 -19 c386 -52 768
-209 1100 -452 72 -53 95 -65 57 -29 -35 33 -58 66 -50 74 7 9 2 9 -12 1 -15
-9 -25 -2 -25 17 0 17 -12 31 -27 31 -15 0 -50 22 -79 48 -28 26 -57 43 -63
37 -6 -7 -11 -2 -11 10 0 12 -31 32 -68 44 -38 13 -79 35 -92 50 -12 16 -58
34 -101 41 -43 7 -84 22 -90 32 -6 10 -33 18 -59 18 -26 0 -57 16 -68 35 -16
28 -21 29 -22 5 0 -20 -6 -22 -15 -8 -8 13 -46 28 -85 34 -38 6 -88 14 -110
17 -22 4 -47 16 -55 27 -9 13 -14 13 -15 0z"/>
<path d="M2550 8260 c-7 -11 -39 -20 -72 -20 -33 0 -87 -14 -120 -31 -32 -17
-68 -25 -79 -19 -10 7 -19 5 -19 -4 0 -10 -43 -29 -95 -44 -52 -15 -125 -44
-161 -64 -37 -21 -76 -38 -87 -38 -12 0 -48 -22 -81 -50 -32 -27 -72 -50 -89
-50 -16 0 -24 -9 -17 -20 7 -11 2 -20 -12 -20 -13 0 -65 -34 -115 -75 -50 -41
-84 -63 -76 -50 8 14 7 25 -3 25 -9 0 -28 -22 -40 -50 -13 -27 -33 -50 -45
-50 -12 0 -16 -9 -9 -20 7 -11 -2 -20 -19 -20 -18 0 -37 -13 -44 -30 -6 -16
-24 -30 -40 -30 -16 0 -24 -9 -17 -20 7 -11 1 -20 -12 -20 -14 0 -19 -6 -11
-13 7 -8 -21 -45 -62 -84 -41 -38 -61 -61 -44 -51 17 10 12 0 -12 -22 -23 -22
-54 -69 -68 -104 -14 -36 -38 -75 -53 -88 -15 -12 -28 -40 -28 -62 0 -25 -9
-33 -25 -24 -14 8 -18 7 -10 -2 8 -9 5 -28 -8 -43 -12 -15 -16 -27 -8 -27 8 0
-3 -29 -25 -65 -22 -36 -36 -81 -33 -101 3 -20 -6 -41 -21 -47 -15 -6 -23 -23
-17 -39 6 -15 4 -28 -6 -28 -9 0 -19 -20 -22 -45 -27 -265 -29 -275 -44 -275
-17 0 -14 -688 4 -701 8 -6 19 -42 24 -80 5 -38 18 -98 28 -132 11 -35 14 -69
8 -75 -6 -7 -1 -12 13 -12 13 0 19 -9 12 -20 -7 -11 -2 -20 11 -20 13 0 18
-13 12 -30 -7 -16 -3 -30 7 -30 10 0 14 -13 7 -30 -6 -16 -3 -30 7 -30 20 0
93 -152 93 -193 0 -14 6 -21 14 -16 14 9 46 -66 41 -97 -2 -10 6 -11 18 -4 18
11 29 -16 22 -56 -2 -10 5 -12 15 -6 20 13 53 -45 45 -78 -3 -11 1 -13 10 -5
15 16 81 -65 73 -90 -3 -8 2 -14 10 -13 36 6 71 -3 59 -15 -7 -7 9 -34 37 -60
28 -26 44 -47 35 -47 -9 -1 13 -19 49 -42 36 -23 59 -51 52 -63 -8 -12 -4 -15
10 -7 13 8 29 1 35 -17 7 -17 21 -31 32 -31 10 0 31 -11 45 -25 58 -55 122
-103 131 -99 6 2 25 -9 43 -24 19 -16 39 -24 45 -17 6 6 17 -4 23 -22 7 -17
44 -38 81 -45 38 -7 75 -23 83 -35 8 -13 33 -24 55 -26 22 -2 67 -9 100 -16
33 -6 -23 29 -125 78 -1058 509 -1523 1685 -1085 2738 243 584 848 1100 1462
1248 83 20 138 43 138 59 0 31 -13 34 -30 6z"/>
<path d="M3098 8029 c-37 -40 -90 -91 -116 -115 -26 -24 -75 -73 -109 -109
-42 -46 -79 -65 -122 -65 -52 -1 -202 -36 -391 -92 -206 -62 -592 -401 -631
-555 -32 -128 -402 -413 -536 -413 -53 0 -113 -90 -113 -171 1 -170 196 -425
360 -469 72 -19 77 -25 55 -60 -20 -32 -15 -56 31 -144 143 -276 244 -314 618
-231 241 54 141 183 -118 152 -142 -17 -281 29 -299 100 -5 19 -50 60 -99 91
-111 70 -106 78 139 199 259 129 348 204 443 376 107 193 301 317 509 325 l51
2 6 245 c3 166 13 245 28 245 67 0 296 -184 296 -237 0 -10 13 -29 28 -42 16
-13 40 -68 54 -123 20 -75 41 -109 87 -137 130 -81 227 -232 272 -421 15 -60
34 -119 43 -129 9 -10 16 -36 16 -56 0 -112 141 -294 286 -368 53 -27 184
-134 291 -238 259 -251 383 -316 693 -360 142 -20 144 -26 36 -97 -129 -85
-186 -136 -186 -165 0 -14 -16 -36 -37 -51 -20 -14 -52 -51 -72 -81 -19 -30
-44 -50 -54 -43 -10 6 -16 -1 -12 -15 3 -14 -6 -26 -20 -26 -14 -1 -52 -32
-85 -71 -33 -38 -68 -70 -79 -70 -10 0 -53 -49 -95 -108 -102 -146 -111 -145
-153 16 -39 152 -188 397 -235 385 -16 -3 -22 0 -14 8 8 7 1 27 -14 42 -49 49
-111 287 -130 497 -18 202 -67 378 -132 483 -122 194 -281 327 -392 327 -43 0
-98 39 -230 162 -310 288 -358 288 -339 2 7 -106 18 -213 24 -236 10 -33 -3
-52 -55 -84 -73 -46 -156 -174 -156 -242 0 -132 -113 -268 -289 -347 -243
-110 -270 -139 -198 -218 73 -81 161 -101 380 -87 138 9 207 7 216 -8 8 -13
-2 -22 -24 -22 -96 0 -120 -160 -36 -239 l49 -46 -50 -74 c-117 -178 -156
-660 -60 -755 58 -59 655 -103 918 -68 1669 224 2510 2067 1538 3374 -170 229
-170 229 -764 265 -126 7 -243 22 -258 32 -16 9 -113 25 -216 33 -222 19 -226
21 -226 110 0 88 -41 169 -121 236 -83 69 -120 66 -201 -19z m70 -252 c-10
-16 -4 -20 19 -11 18 7 33 4 33 -7 0 -48 170 -213 250 -242 38 -14 70 -30 70
-36 0 -6 47 -13 105 -15 193 -6 215 -9 215 -24 0 -9 43 -15 95 -15 227 1 347
-8 336 -25 -6 -10 8 -13 31 -7 25 6 49 -1 60 -17 10 -17 18 -19 18 -5 0 16 28
20 85 12 120 -15 180 -40 163 -68 -8 -14 -5 -18 7 -10 20 12 74 -50 153 -174
24 -39 27 -53 9 -44 -15 8 -11 1 8 -15 19 -16 35 -43 35 -61 0 -18 8 -33 17
-33 25 0 65 -100 50 -125 -8 -13 -4 -15 13 -5 20 12 23 7 14 -17 -7 -18 -4
-33 7 -33 10 0 18 -7 16 -15 -2 -8 12 -50 32 -93 19 -44 36 -102 38 -130 2
-29 11 -58 22 -65 11 -8 7 -29 -10 -49 -20 -24 -21 -31 -3 -20 19 11 24 -2 21
-52 -3 -37 3 -79 12 -94 10 -16 5 -33 -11 -44 -20 -13 -21 -17 -3 -18 32 0 33
-64 1 -96 -19 -19 -19 -24 0 -24 32 0 31 -80 -1 -82 -20 -1 -20 -3 0 -11 26
-11 34 -71 12 -94 -7 -7 -15 -38 -18 -68 -2 -30 -9 -77 -16 -105 -7 -27 -18
-75 -24 -105 -7 -30 -21 -55 -32 -55 -11 0 -14 -9 -7 -20 35 -57 -52 -157
-137 -157 -202 1 -629 246 -598 342 3 8 -9 15 -26 15 -17 0 -26 8 -20 18 6 9
-8 22 -31 28 -25 7 -36 21 -28 34 8 13 3 20 -14 16 -15 -3 -29 2 -30 12 -2 10
-31 30 -65 45 -35 14 -76 40 -93 57 -17 16 -49 40 -71 51 -21 12 -48 41 -58
65 -11 24 -37 73 -59 109 -21 36 -35 65 -29 65 6 0 1 17 -10 38 -11 21 -22 66
-25 100 -2 34 -10 62 -17 62 -12 0 -69 153 -69 186 0 8 -9 22 -21 30 -44 30
-128 158 -114 174 8 9 5 11 -7 4 -35 -20 -211 210 -182 238 5 6 -10 31 -33 56
-24 25 -65 74 -93 110 -27 35 -79 82 -115 105 -36 22 -60 48 -55 57 6 10 -5
18 -25 18 -19 0 -60 6 -90 13 -69 17 -156 -4 -150 -36 3 -14 -6 -23 -20 -20
-14 3 -24 -2 -23 -10 5 -33 -28 -104 -43 -94 -9 5 -15 -22 -13 -61 2 -38 13
-70 24 -70 13 0 13 -6 0 -15 -11 -8 -21 -26 -22 -40 -1 -14 -3 -38 -5 -54 -2
-15 -21 -34 -43 -41 -22 -7 -35 -23 -27 -35 7 -12 4 -15 -9 -8 -11 8 -27 4
-35 -8 -7 -12 -25 -17 -39 -12 -15 6 -32 -2 -38 -18 -6 -16 -25 -29 -41 -29
-17 0 -31 -10 -31 -21 0 -12 -9 -16 -20 -9 -11 7 -43 -13 -72 -44 -29 -31 -61
-54 -70 -51 -10 3 -18 -7 -18 -22 0 -14 -22 -47 -50 -73 -27 -26 -50 -63 -50
-83 0 -21 -7 -37 -15 -37 -9 0 -24 -19 -35 -43 -11 -24 -51 -60 -90 -80 -38
-20 -61 -37 -50 -37 10 0 -1 -14 -26 -31 -24 -17 -53 -26 -64 -19 -11 7 -20
-2 -20 -19 0 -21 -19 -31 -61 -31 -34 0 -56 -9 -49 -19 18 -30 -112 -58 -170
-37 -61 23 -156 123 -161 171 -9 88 0 108 44 94 28 -9 38 -6 28 9 -7 12 0 22
18 22 17 0 31 11 31 25 1 17 7 15 20 -5 17 -26 19 -26 20 3 0 27 38 58 80 65
16 3 250 239 250 252 0 25 136 220 153 220 11 0 15 7 9 16 -10 17 56 84 83 84
9 0 33 23 54 52 45 59 139 113 162 92 8 -8 9 -3 1 10 -9 16 5 29 36 37 28 7
61 26 74 41 26 32 67 39 48 8 -20 -32 33 -23 58 10 23 31 224 78 254 59 10 -7
32 2 49 19 16 17 44 25 60 19 17 -7 28 -3 25 8 -7 21 172 165 205 165 12 0 16
8 10 19 -7 10 4 28 24 39 46 27 50 27 33 -1z m-292 -1457 c39 -24 60 -50 52
-63 -8 -14 -5 -18 7 -10 12 7 41 -12 65 -42 24 -30 37 -41 30 -25 -12 27 -10
27 14 0 14 -16 40 -33 56 -37 17 -3 33 -14 37 -25 3 -10 14 -14 23 -8 42 26
275 -130 251 -168 -6 -10 2 -23 18 -29 37 -14 116 -186 119 -258 1 -30 8 -55
14 -55 7 0 13 -99 13 -221 0 -185 -4 -216 -27 -197 -35 29 -36 45 -3 28 27
-14 -17 23 -82 69 -22 15 -35 37 -29 48 7 10 3 13 -9 6 -28 -17 -148 26 -134
49 6 10 2 18 -10 18 -11 0 -22 -11 -23 -25 -1 -20 -3 -20 -11 0 -6 14 -16 22
-24 17 -7 -4 -67 1 -133 12 -66 11 -129 19 -140 18 -11 -2 -43 -5 -71 -9 -28
-3 -62 -12 -75 -21 -14 -8 -24 -3 -24 12 -1 19 -6 18 -20 -4 -17 -27 -19 -27
-20 0 -1 23 -6 22 -22 -5 -11 -20 -29 -31 -39 -24 -11 6 -19 4 -19 -6 0 -9
-18 -18 -40 -20 -22 -1 -40 8 -40 21 0 14 -8 12 -20 -6 -17 -26 -19 -25 -20 4
0 23 -11 31 -30 23 -16 -6 -30 -1 -30 11 0 12 -18 22 -40 22 -22 0 -40 13 -40
30 0 17 10 30 21 30 12 0 16 8 10 19 -7 10 2 27 20 36 17 10 34 34 37 53 2 19
17 42 31 51 14 9 20 27 12 39 -7 12 -4 22 7 22 11 0 16 14 9 30 -6 17 0 30 13
30 13 0 19 13 13 30 -7 17 -3 30 7 30 10 0 14 13 8 28 -6 15 17 56 51 91 33
34 61 71 61 82 0 12 20 47 44 80 33 45 42 82 39 159 -6 112 0 116 93 60z m374
-1054 c45 -25 51 -26 120 -26 36 0 50 -11 50 -39 0 -21 22 -63 49 -92 28 -30
91 -124 142 -210 85 -146 273 -348 400 -431 80 -53 9 -120 -141 -133 -27 -2
-50 -12 -50 -22 0 -10 -18 -13 -40 -7 -23 6 -52 -1 -66 -15 -14 -13 -40 -22
-59 -20 -19 3 -35 -4 -35 -15 0 -11 -18 -16 -40 -10 -22 6 -40 1 -40 -10 0
-11 -22 -16 -50 -11 -27 5 -50 3 -50 -5 0 -8 -38 -12 -85 -8 -63 5 -77 2 -55
-13 25 -17 23 -20 -10 -17 -40 4 -83 -8 -164 -46 -62 -30 -140 58 -158 178
-31 211 -153 451 -255 502 -83 41 -91 51 -72 86 22 42 14 136 -20 227 -12 29
-21 57 -21 61 0 26 204 121 280 130 97 12 304 -19 370 -54z m-525 -623 c-3
-13 6 -21 19 -18 13 3 25 -4 27 -15 1 -11 22 -64 46 -118 25 -56 39 -114 31
-137 -8 -27 -5 -35 10 -26 30 18 28 -15 -3 -48 -20 -22 -20 -24 2 -12 19 11
25 5 20 -22 -6 -30 -23 -36 -97 -32 -127 7 -139 10 -129 26 5 8 -9 19 -31 25
-43 11 -54 154 -12 154 12 0 10 8 -5 18 -37 23 -11 138 45 197 42 45 86 49 77
8z"/>
<path d="M364 7175 c-115 -279 -196 -606 -137 -558 18 15 29 34 24 41 -13 22
32 208 62 253 15 23 21 48 14 56 -8 7 -2 13 12 13 14 0 20 13 14 29 -6 15 -3
31 7 35 10 3 22 31 28 61 5 30 27 80 48 110 37 53 39 105 4 105 -9 0 -43 -65
-76 -145z"/>
<path d="M187 6555 c-24 -38 -35 -715 -12 -715 11 0 15 -22 10 -50 -5 -27 -3
-65 5 -85 8 -19 17 -66 21 -105 12 -128 110 -427 207 -632 564 -1183 1848
-1822 3187 -1585 74 13 135 31 135 40 0 8 12 11 26 6 163 -63 992 395 1341
740 205 202 539 651 485 651 -7 0 5 17 26 38 85 85 244 565 294 892 28 183 39
648 15 624 -7 -8 -27 -2 -44 11 -25 21 -25 18 2 -25 44 -70 46 -406 3 -449
-20 -20 -22 -31 -7 -31 17 0 19 -22 8 -75 -8 -41 -16 -91 -16 -110 -1 -19 -15
-36 -32 -37 -19 -1 -22 -5 -7 -11 16 -6 18 -25 8 -53 -9 -24 -12 -57 -7 -72 6
-17 1 -22 -12 -14 -13 8 -23 5 -23 -7 0 -11 11 -21 25 -21 19 -1 19 -4 -1 -17
-14 -9 -27 -36 -29 -60 -2 -24 -10 -43 -19 -43 -8 0 -10 -13 -3 -30 6 -16 1
-30 -12 -30 -13 0 -18 -8 -12 -18 6 -11 -3 -33 -20 -50 -24 -24 -25 -32 -5
-32 21 -1 21 -4 -1 -18 -14 -9 -27 -24 -27 -34 -2 -29 -44 -117 -62 -130 -9
-6 -14 -20 -11 -30 8 -28 -24 -108 -42 -108 -16 0 -51 -96 -45 -124 2 -8 -9
-10 -24 -4 -15 6 -32 -4 -39 -22 -7 -19 -4 -27 8 -20 11 7 -2 -20 -29 -59 -27
-40 -57 -72 -66 -71 -9 1 -21 -18 -28 -44 -6 -25 -23 -44 -36 -41 -14 4 -20
-2 -14 -12 16 -25 -67 -126 -90 -112 -10 7 -17 0 -13 -14 3 -14 -5 -26 -18
-26 -32 -1 -114 -91 -142 -156 -13 -30 -37 -55 -53 -55 -17 0 -43 -19 -59 -42
-17 -23 -40 -36 -51 -29 -12 7 -22 -1 -22 -19 0 -19 -9 -27 -23 -18 -15 9 -18
5 -8 -10 10 -16 0 -29 -27 -36 -23 -6 -42 -20 -42 -31 0 -11 -18 -15 -40 -9
-22 6 -35 3 -30 -6 14 -22 -45 -80 -81 -80 -16 0 -29 -8 -29 -19 0 -10 -20
-25 -45 -33 -25 -7 -56 -28 -69 -46 -14 -18 -25 -25 -25 -16 -1 9 -15 3 -33
-15 -17 -17 -39 -26 -50 -20 -10 6 -18 3 -18 -7 0 -18 -172 -93 -186 -80 -4 3
-23 -10 -42 -29 -19 -20 -45 -29 -57 -22 -12 8 -15 4 -7 -10 13 -21 -65 -35
-143 -24 -14 1 -25 -8 -25 -20 0 -13 -13 -18 -28 -13 -15 6 -34 6 -41 -1 -7
-7 -23 -15 -37 -18 -13 -3 -64 -16 -114 -28 -288 -72 -281 -71 -585 -58 -63 3
-120 1 -125 -5 -14 -14 -292 0 -330 17 -16 7 -57 17 -90 21 -33 4 -91 18 -130
31 -38 13 -81 21 -95 18 -14 -3 -25 4 -25 14 0 11 -18 15 -40 9 -23 -6 -40 -1
-40 13 0 13 -9 18 -20 11 -11 -7 -49 1 -83 19 -35 17 -75 31 -90 31 -15 0 -27
8 -27 17 0 9 -13 16 -28 16 -43 0 -152 50 -152 69 0 10 -7 16 -15 14 -29 -8
-105 27 -105 47 0 12 -13 16 -30 10 -16 -6 -27 -1 -25 11 3 12 -17 29 -45 36
-27 7 -48 24 -45 37 4 20 -35 33 -80 25 -8 -1 -15 8 -15 20 0 12 -13 17 -30
11 -18 -7 -30 0 -30 18 0 16 -13 29 -29 29 -16 0 -43 20 -60 44 -17 25 -31 38
-31 30 0 -9 -13 -4 -28 10 -15 14 -24 33 -19 41 5 8 -5 15 -23 15 -18 0 -27 9
-20 20 7 11 4 20 -6 20 -20 0 -74 44 -207 170 -101 95 -152 161 -86 110 36
-28 37 -27 12 5 -16 19 -40 35 -55 35 -16 0 -28 13 -28 28 0 15 -14 33 -31 40
-17 6 -27 20 -20 30 6 10 -4 23 -22 30 -18 7 -28 18 -21 24 6 7 -10 36 -36 65
-26 29 -47 61 -47 71 0 10 -7 23 -16 30 -39 28 -79 91 -47 73 17 -8 4 8 -28
37 -35 31 -47 52 -30 52 19 1 21 5 6 15 -29 19 -113 185 -94 185 8 0 3 11 -10
24 -13 13 -24 40 -24 60 0 20 -8 36 -19 36 -10 0 -15 18 -11 41 4 22 -1 35
-11 28 -10 -6 -19 -2 -19 10 0 40 -3 51 -24 76 -12 14 -15 25 -8 25 7 0 3 19
-9 41 -12 23 -25 86 -29 141 -4 54 -12 114 -18 133 -33 111 -56 305 -35 305 7
0 14 32 15 70 1 39 -8 70 -20 70 -12 0 -8 9 8 20 17 11 21 20 10 20 -11 0 -6
9 10 20 25 16 25 19 -6 20 -31 0 -35 14 -27 105 5 58 11 105 13 105 2 0 6 29
8 65 5 71 2 77 -21 40z"/>
</g>
</svg>
